<svg width="312" height="55" viewBox="0 0 312 55" fill="none" xmlns="http://www.w3.org/2000/svg">
<path d="M18.31 7.74C19.29 7.18 20.97 5.85 20.97 5.64C20.97 5.29 19.36 5.99 18.66 6.69C18.38 7.04 17.89 7.46 17.61 7.67C16.7 8.37 15.86 9.28 14.95 10.4C14.46 10.96 14.25 11.24 14.32 11.24C14.39 11.24 14.95 10.75 16.07 9.63C16.91 8.79 17.82 8.02 18.31 7.74ZM2.14 47.01C2.56 47.01 2.98 47.43 2.98 47.78C2.98 48.2 2.56 48.62 2.14 48.62C1.72 48.62 1.37 48.2 1.37 47.78C1.37 47.43 1.79 47.01 2.14 47.01ZM3.54 24.75C3.26 24.54 3.26 24.4 3.54 24.05C3.75 23.77 4.17 23.63 4.38 23.91C4.52 24.05 4.52 24.33 4.24 24.61C3.89 24.89 3.82 24.96 3.54 24.75ZM33.71 12.43C34.06 16.35 34.06 16.28 33.22 17.26C32.87 17.61 32.38 18.31 32.03 18.8C31.54 19.57 31.33 19.78 30.77 20.13C29.86 20.69 29.23 20.76 28.88 20.41C28.67 20.27 28.53 19.92 28.39 19.71C28.32 19.43 28.18 19.01 28.11 18.73C27.97 18.38 27.76 18.17 27.41 17.82C26.64 17.33 26.08 16.35 26.01 15.44C25.94 15.02 25.8 14.53 25.73 14.25C25.73 13.97 25.59 13.34 25.59 12.78C25.45 11.59 25.31 11.45 24.75 11.8C23.98 12.22 23 13.06 22.37 13.83C20.97 15.79 19.57 17.75 18.24 19.78C17.4 20.9 15.65 23.98 15.37 24.75C15.23 25.1 14.6 26.5 13.97 27.76C13.41 29.02 12.71 30.49 12.57 30.98C12.36 31.54 12.01 32.31 11.73 32.73C11.38 33.36 11.31 33.71 11.17 34.55C11.03 35.11 10.89 35.95 10.82 36.37C10.61 37.35 10.61 38.47 10.96 39.87C11.1 40.5 11.17 41.27 11.17 41.97C11.17 42.88 11.24 43.09 11.38 43.23C11.59 43.37 11.73 43.44 12.01 43.37C12.92 43.23 14.46 42.25 15.16 41.34C15.44 41.06 15.79 40.78 16.42 40.5C17.26 40.08 17.4 39.94 18.24 39.03C18.94 38.19 19.29 37.91 19.78 37.63C20.83 37.07 21.18 36.86 22.3 35.81C22.86 35.32 23.56 34.69 23.91 34.48C24.19 34.27 24.68 33.92 24.96 33.71C25.31 33.43 25.66 33.36 25.94 33.36C26.43 33.36 26.85 33.64 27.13 34.13C27.41 34.76 27.27 36.09 26.85 36.51C26.57 36.79 26.01 37.91 26.01 38.19C26.01 38.33 26.08 39.03 26.22 39.66L26.43 40.78L26.08 41.41C25.87 41.83 25.17 42.6 24.33 43.44C23.49 44.28 22.65 45.19 22.37 45.61C21.39 47.08 18.87 48.9 17.19 49.39C16.21 49.67 16.14 49.74 15.65 50.3C14.95 51.14 14.04 51.49 12.99 51.49C12.85 51.56 12.22 51.63 11.52 51.63C10.4 51.7 10.12 51.63 9.42 51.42C8.93 51.21 8.3 51 8.09 50.79C7.81 50.65 7.32 50.44 7.04 50.3C5.71 49.88 4.87 49.18 4.24 48.13C4.03 47.85 3.68 47.36 3.47 47.08C3.26 46.66 2.98 46.17 2.91 45.75C2.77 45.33 2.63 44.77 2.56 44.49C2.42 44.07 2.42 43.79 2.56 43.02C2.63 42.32 2.63 41.9 2.56 41.55C2.42 40.92 2.35 40.92 2.28 41.55C2.28 41.83 2.14 42.39 2.14 42.81C2.07 43.16 2 43.72 2 44C2 44.63 1.93 45.05 1.79 44.98C1.58 44.84 1.23 44.07 1.16 43.37C1.09 42.95 1.02 41.55 0.95 40.29C0.95 36.79 1.23 34.41 2 32.59C2.56 31.26 2.98 30 3.33 28.74C3.68 27.2 4.45 25.59 5.64 23.77C6.97 21.74 7.39 21.04 7.74 19.99C8.09 18.8 8.16 18.45 7.81 19.01C7.67 19.15 7.46 19.57 7.25 19.78C7.04 20.06 6.55 20.76 6.2 21.39C5.5 22.58 5.15 22.79 4.94 22.37C4.8 22.09 4.87 21.81 5.43 20.55C5.78 19.78 5.92 19.57 7.81 16.7C8.37 15.79 8.93 14.81 9 14.53C9.14 14.18 9.35 13.9 10.12 13.13C10.61 12.64 11.17 12.01 11.38 11.73C11.59 11.45 12.08 10.96 12.43 10.61C12.85 10.26 13.69 9.49 14.32 8.86C14.95 8.3 15.58 7.74 15.79 7.6C16 7.53 16.7 6.97 17.26 6.41C19.71 4.24 20.69 3.82 23.56 3.68C24.96 3.61 25.24 3.54 25.87 3.33C26.92 2.84 27.55 2.77 28.18 2.91C29.09 3.19 29.72 3.61 30.21 4.31C30.42 4.66 30.91 5.15 31.26 5.43C32.52 6.34 32.73 6.69 33.01 8.16C33.08 8.44 33.15 8.93 33.29 9.28C33.43 9.84 33.57 11.03 33.71 12.43ZM27.83 36.86C28.25 36.51 28.74 36.51 29.09 36.86C29.3 37.14 29.37 37.21 29.3 37.56C29.23 38.19 28.53 38.68 28.04 38.68C27.83 38.68 27.69 38.61 27.55 38.47C27.48 38.33 27.41 38.19 27.34 38.12C27.27 37.77 27.48 37.14 27.83 36.86ZM47.8101 7.67C47.8801 7.53 47.9501 7.39 47.8801 7.39L47.8101 7.32C47.4601 7.32 46.8301 8.65 46.4801 10.05C46.1301 11.31 45.2901 13.9 44.8701 14.95C44.7301 15.44 44.5901 15.79 44.5901 15.86C44.6601 15.86 45.2201 14.39 46.5501 10.96C46.9001 10.05 47.3201 9 47.4601 8.65C47.6001 8.23 47.7401 7.81 47.8101 7.67ZM58.7301 45.75C58.8701 45.54 58.9401 45.54 59.0801 45.68C59.2901 45.82 59.2901 46.38 59.1501 46.8C58.9401 47.36 58.3801 47.64 58.2401 47.15C58.1701 47.01 58.2401 46.8 58.3101 46.66C58.3801 46.52 58.4501 46.31 58.4501 46.17C58.4501 46.03 58.5901 45.89 58.7301 45.75ZM73.7801 4.87C73.9901 5.85 73.9901 6.2 73.5001 7.46C73.0101 8.86 71.2601 12.43 71.0501 12.36C70.8401 12.36 70.9101 12.01 71.4001 10.75C71.8901 9.42 71.8901 9.14 71.4701 9.84C70.7001 11.03 70.2801 12.5 70.0701 14.53C70.0001 15.16 69.8601 15.93 69.7901 16.28C69.6501 16.77 69.4401 17.05 68.5301 18.17C68.2501 18.45 68.1801 18.73 68.1101 19.22C68.0401 19.85 68.0401 19.99 67.6901 20.34C67.4101 20.69 67.2701 20.97 67.2001 21.25C67.2001 21.53 66.9901 22.16 66.7801 22.58C66.6401 23.07 66.5001 23.49 66.5001 23.49C66.5001 23.49 66.7801 23.49 67.1301 23.42C67.9001 23.42 68.3901 23.56 68.5301 23.84C68.6701 24.12 68.6001 24.33 68.2501 24.75C67.9701 25.1 67.9701 25.17 68.2501 26.5C68.4601 27.41 68.5301 28.25 68.3201 28.6C68.1801 28.95 67.2001 29.58 66.5001 29.86C66.2201 29.93 65.7301 30.07 65.3101 30.07L64.6101 30.14L63.8401 32.45C63.4201 33.71 63.0001 34.83 62.9301 34.97C62.8601 35.04 62.4401 35.6 61.9501 36.16L61.1801 37.14L61.1101 38.4C61.1101 39.59 61.1101 39.8 60.7601 40.85C60.5501 41.48 60.2001 42.32 60.0601 42.67C59.8501 43.02 59.5701 43.58 59.5001 43.86C59.3601 44.21 59.0801 44.63 58.6601 45.05C58.1701 45.47 57.9601 45.75 57.8901 46.1C57.8201 46.38 57.6101 46.8 57.4701 47.08C57.3301 47.36 57.1901 47.92 57.1201 48.27C57.1201 48.83 56.9801 49.04 56.7001 49.46C56.4901 49.67 56.1401 49.95 55.9301 50.09C55.7201 50.16 55.3701 50.44 55.0901 50.65C54.6701 51 54.6001 51.07 53.7601 51.07C53.2001 51.07 52.8501 51 52.7101 50.93C52.5701 50.79 52.0101 49.46 52.0101 49.11C52.0101 48.97 51.8001 48.41 51.5201 47.85C51.1701 47.08 51.0301 46.66 50.9601 46.03C50.8201 45.19 50.8201 45.12 51.2401 43.44C51.9401 40.85 52.4301 39.24 52.7101 38.68C52.8501 38.4 52.9901 37.84 53.0601 37.49C53.1301 36.93 53.2701 36.51 53.6201 35.67C53.9701 35.11 54.1801 34.48 54.1801 34.34C54.1801 33.99 54.5301 33.01 54.8801 32.38C55.1601 31.75 56.0001 31.05 56.9101 30.77C57.6801 30.49 57.8201 30.14 57.0501 30.28C54.4601 30.63 52.2901 30.7 51.5901 30.49C51.2401 30.35 51.1001 30.35 50.3301 30.63C49.6301 30.84 49.3501 30.91 48.7901 30.84C48.4401 30.77 47.9501 30.77 47.8801 30.7C47.6001 30.7 47.5301 30.84 47.3201 31.4C47.1801 31.82 46.9001 32.45 46.6901 32.87C46.4801 33.29 46.2701 33.71 46.2701 33.92C46.2701 34.41 45.8501 35.6 45.2201 36.72C44.6601 37.56 44.5901 37.77 44.5901 38.26C44.5901 39.52 41.8601 46.31 41.0201 47.29C40.3901 47.85 40.3901 47.85 40.6701 46.17C40.8101 45.33 41.0201 44.7 41.3001 44.07C42.2101 42.18 42.5601 41.2 42.4901 40.85C42.4201 40.71 42.4901 40.29 42.5601 39.94C42.7701 38.82 42.6301 38.89 42.0701 40.01C41.7901 40.57 41.5101 41.2 41.5101 41.34C41.1601 42.04 40.9501 42.95 40.8101 43.72C40.6001 44.91 40.3901 45.4 39.7601 46.1C39.3401 46.59 39.1301 46.87 38.9901 47.36C38.4301 49.46 38.4301 49.53 37.5201 49.81C37.2401 49.88 37.0301 50.02 36.9601 50.23C36.8901 50.37 36.6101 50.72 36.3301 50.93C35.8401 51.35 35.3501 51.42 34.8601 51.14C34.5101 50.93 32.6201 48.83 32.5501 48.55C32.2001 47.36 33.9501 41.62 35.4901 38.54C36.3301 36.93 36.4001 36.79 36.4001 36.09C36.4001 34.34 37.4501 31.26 39.4101 30.84C40.2501 30.56 40.2501 30.56 40.1801 30.49C40.1801 30.42 39.6901 30.42 39.0601 30.42C38.1501 30.49 38.0101 30.42 37.4501 30.21C36.9601 30 36.6801 29.93 36.1201 29.93C35.2101 29.93 35.1401 29.86 34.9301 29.44C34.5801 28.81 34.9301 28.32 35.9801 27.62C36.1901 27.48 36.4001 27.34 36.4001 27.27C36.4001 27.2 36.1901 26.99 35.9101 26.71C35.3501 26.01 35.3501 25.52 35.9101 24.89C36.5401 24.26 37.0301 24.05 38.4301 23.98C39.2701 23.98 39.7601 23.84 40.1101 23.7C40.5301 23.56 40.6001 23.49 40.7401 22.93C41.1601 21.18 41.7901 19.5 42.5601 17.89C43.3301 16.28 43.8901 14.6 44.3101 12.92C44.4501 12.29 44.7301 11.24 44.8701 10.75C45.5001 8.3 45.5701 8.23 46.2701 7.32C46.8301 6.55 47.0401 6.2 47.1101 5.57C47.2501 4.73 47.6701 3.89 48.5801 3.68C49.0701 3.68 50.4001 3.47 50.8201 3.19C51.2401 2.91 51.6601 2.77 52.0101 2.77C52.4301 2.77 52.7801 2.91 53.1301 3.19C53.2701 3.33 53.6901 3.54 53.9701 3.61C54.2501 3.68 54.6001 3.89 54.7401 4.03C55.0901 4.31 55.4401 5.01 55.5801 5.57C55.5801 5.78 55.7201 6.2 55.8601 6.48C56.0001 6.83 56.1401 7.18 56.0701 7.32C55.9301 7.88 55.5801 8.44 55.1601 8.72C54.6001 9.21 53.8301 10.26 53.6201 10.96C53.4801 11.31 53.4801 11.59 53.5501 12.01C53.6901 12.71 53.4801 13.62 52.4301 16.49C52.0801 17.54 51.7301 18.66 51.6601 19.01C51.4501 19.64 51.0301 20.62 50.4701 21.46C50.1901 21.81 49.7701 23.42 49.9101 23.49C49.9801 23.56 50.4001 23.49 50.9601 23.42C51.5201 23.28 52.2201 23.21 52.5001 23.14C52.8501 23.14 53.2701 23 53.5501 22.79C54.2501 22.3 54.6701 22.3 55.3701 22.79C56.0001 23.21 56.7701 23.28 57.5401 23.07C57.9601 22.93 58.0301 22.86 58.2401 22.23C58.3801 21.88 58.5901 21.18 58.7301 20.69C59.2201 19.01 59.7801 17.4 60.6201 15.86C60.9701 15.23 60.9701 15.09 60.9701 14.46C60.9701 13.62 61.1101 13.34 61.6701 12.64C61.9501 12.36 62.0901 12.01 62.1601 11.73C62.1601 11.45 62.3001 11.03 62.4401 10.75C62.5801 10.33 62.6501 9.91 62.6501 9.14C62.7201 7.88 62.7901 7.67 63.7701 6.83C64.3301 6.34 64.5401 6.06 64.8901 5.36C65.5901 3.82 66.0101 3.61 67.7601 3.47C69.0201 3.4 69.1601 3.4 69.6501 3.05C70.6301 2.42 71.0501 2.42 71.4701 3.05C71.8201 3.54 71.8201 3.54 72.3801 3.54C73.2201 3.54 73.5701 3.82 73.7801 4.87ZM69.4401 24.68C69.9301 24.33 70.1401 24.33 70.4201 24.61C70.8401 25.03 70.5601 25.73 69.8601 26.15C69.2301 26.43 68.8101 26.43 68.6001 26.08C68.4601 25.87 68.3201 25.73 68.3201 25.66C68.3201 25.45 68.7401 24.96 68.9501 24.96C69.0201 24.96 69.2301 24.82 69.4401 24.68ZM53.6901 2.84C53.6901 2.77 53.6201 2.49 53.6201 2.21C53.4801 1.37 53.9001 0.739996 54.5301 0.739996C54.6701 0.739996 54.8801 0.809999 54.9501 0.879999C55.2301 1.16 54.9501 2.14 54.4601 2.63C54.2501 2.91 53.8301 2.98 53.6901 2.84ZM79.0678 27.69C79.4178 26.92 79.4878 26.43 79.2778 26.43C79.0678 26.43 78.5078 27.34 78.0878 28.25C77.9478 28.67 77.6678 29.37 77.4578 29.79C77.0378 30.63 76.8278 31.19 77.0378 31.19C77.0378 31.19 77.4578 30.7 77.8078 30.07C78.2278 29.44 78.5778 28.81 78.6478 28.67C78.6478 28.53 78.8578 28.11 79.0678 27.69ZM90.4778 21.04C90.5478 18.94 90.5478 18.8 90.3378 18.8C90.2678 18.8 90.0578 19.15 89.8478 19.71C89.7078 20.2 89.4978 20.83 89.3578 21.04C88.8678 21.95 88.0978 24.12 88.0278 24.68C87.9578 24.96 87.8878 25.38 87.8878 25.52C87.8878 25.73 87.6078 26.15 87.3278 26.5C86.9778 26.85 86.4878 27.69 86.1378 28.39L85.4378 29.72L85.5778 30.35C85.7178 30.91 85.6478 31.12 85.5078 31.47L85.3678 31.89L85.9978 31.82C86.4178 31.75 87.1178 31.68 87.6778 31.61L88.6578 31.47L88.7278 30.7C88.7978 30.28 89.0078 29.58 89.2178 29.02C89.5678 27.83 89.6378 26.99 89.4278 26.22C89.1478 25.45 89.2178 24.82 89.8478 23.49C90.3378 22.44 90.3378 22.37 90.4778 21.04ZM101.678 33.57C101.958 34.2 101.958 34.97 101.538 35.11C100.558 35.53 99.9978 35.95 99.5778 36.44C99.3678 36.79 99.0878 37 99.0178 37C98.9478 37 98.6678 36.93 98.3878 36.79C97.8278 36.44 97.2678 36.37 97.2678 36.65C97.2678 36.72 97.2678 37.21 97.3378 37.77C97.4778 38.75 97.4778 38.89 97.2678 39.66C96.9878 40.78 96.6378 42.39 96.4278 43.79C95.8678 47.36 95.7978 47.99 95.5178 48.48C95.2378 48.83 94.8178 49.11 94.4678 49.11C94.3278 49.11 94.1178 49.25 93.9778 49.53C93.7678 50.02 93.6278 50.09 93.1378 50.09C92.9278 50.09 92.7178 49.95 92.2978 49.6C92.0178 49.25 91.7378 49.04 91.5978 49.04C91.3878 49.04 91.1778 49.81 90.9678 51C90.8278 52.19 90.0578 52.96 89.2178 52.96C87.9578 52.96 87.7478 51.84 87.7478 50.79C87.7478 50.3 87.8178 49.53 87.8178 49.11C87.8878 48.41 87.8878 48.27 87.6078 47.36C87.2578 46.17 87.2578 45.82 87.5378 44.7C87.6778 44.14 87.7478 43.44 87.7478 42.88L87.8178 42.04L87.2578 41.55C86.9778 41.27 86.7678 40.99 86.7678 40.92C86.7678 40.36 88.1678 38.89 89.3578 38.33C89.9878 37.98 90.1978 37.7 89.8478 37.7C89.7078 37.7 89.1478 37.84 88.5878 38.12C88.0278 38.33 87.3978 38.54 87.3278 38.54C87.1878 38.54 86.9078 38.68 86.6278 38.89C85.9978 39.24 84.9478 39.59 84.4578 39.66C84.2478 39.66 83.9678 39.73 83.8278 39.8C83.6878 39.87 83.2678 39.94 82.7778 39.94C81.7278 39.94 81.6578 40.01 81.6578 40.64C81.6578 41.06 81.5878 41.27 81.0978 42.04C80.1878 43.37 80.0478 43.65 79.9778 44.63C79.8378 45.89 79.6978 45.96 78.6478 46.73C78.0178 47.22 77.6678 47.57 77.5978 47.78C77.5278 47.92 77.3878 48.27 77.3178 48.41C77.3178 49.11 75.7078 49.74 75.2178 49.81C74.2378 50.02 74.1678 50.09 73.6778 50.51C73.3978 50.79 72.9078 51.28 72.4878 51.56C71.9278 51.91 71.5778 52.33 71.0178 53.1C70.3178 54.01 70.1778 54.08 69.8978 54.08C69.6878 54.08 69.4778 54.08 69.3378 54.01C68.9878 53.73 68.7778 53.24 68.6378 51.63C68.5678 50.23 68.4978 49.95 68.2178 49.53C67.9378 49.04 67.9378 48.97 68.0078 48.13C68.0078 47.29 68.0778 47.15 68.9178 45.4C69.4078 44.42 69.8978 43.37 70.0378 43.09C70.3178 42.53 71.3678 41.41 71.9278 41.06C72.3478 40.78 72.5578 40.5 72.2778 40.5C72.2078 40.5 71.9278 40.57 71.6478 40.71C71.3678 40.85 70.5978 40.99 69.9678 41.13C68.7778 41.27 68.7078 41.27 68.4978 41.06C68.3578 40.99 68.2178 40.71 68.0778 40.5C68.0078 40.29 67.7278 39.8 67.4478 39.45C67.2378 39.03 66.9578 38.61 66.9578 38.47C66.9578 38.33 67.0978 37.91 67.3078 37.56C67.4478 37.14 67.5878 36.79 67.6578 36.65C67.7278 36.44 67.9378 36.3 68.7078 36.09C69.1978 35.95 69.8978 35.74 70.3178 35.6C70.6678 35.46 71.0878 35.32 71.2278 35.25C71.5078 35.18 71.5078 35.11 71.5078 34.83C71.5078 34.41 71.6478 34.27 72.1378 34.2C72.3478 34.13 72.7678 33.99 73.1178 33.78C73.4678 33.64 73.8878 33.43 74.1678 33.36C74.5878 33.22 74.8678 32.8 75.5678 30.91C76.1278 29.65 76.7578 28.32 77.1078 28.11C77.2478 27.9 77.9478 26.29 78.7878 23.91C78.9978 23.14 81.8678 17.54 82.1478 17.19C82.1478 17.12 82.4978 16.49 82.7778 15.72C83.1278 15.02 83.5478 14.11 83.8278 13.76C84.0378 13.41 84.4578 12.64 84.6678 12.08C85.1578 11.03 85.3678 10.82 85.5778 10.96C85.7878 11.03 85.6478 11.94 85.3678 12.71C85.2278 13.06 85.0178 13.69 84.8778 14.04C84.8078 14.46 84.5978 15.16 84.4578 15.51C84.2478 15.93 84.1778 16.21 84.1778 16.28C84.2478 16.28 84.4578 16 84.6678 15.58C84.8778 15.3 85.9278 13.69 85.9278 13.41C85.9278 13.27 86.0678 12.85 86.2778 12.5C86.9078 11.24 87.3278 10.05 87.2578 9.7C87.1178 9.14 87.3278 8.37 87.6778 7.81C88.3078 6.83 88.6578 6.2 89.1478 5.57C89.3578 5.22 89.6378 4.8 89.7078 4.59C89.8478 4.1 91.3878 1.72 91.6678 1.51C91.9478 1.3 92.2278 1.51 92.3678 2.07C92.4378 2.35 92.5778 2.63 92.7178 2.77C92.9978 2.98 93.7678 3.33 94.1878 3.33C94.5378 3.33 95.3078 3.89 95.6578 4.31C95.8678 4.73 96.4278 5.08 97.1278 5.22C97.3378 5.29 97.5478 5.36 97.6178 5.57C97.6178 5.71 97.7578 5.85 97.8978 5.85C98.3178 5.99 99.1578 6.97 99.5778 7.81L99.9978 8.58V10.33C99.9978 11.38 99.9978 12.43 99.8578 13.13C99.7878 13.9 99.7178 14.67 99.7878 15.51C99.8578 16.42 99.7878 16.91 99.6478 17.89C99.2978 19.64 98.9478 22.16 98.6678 24.19C98.5278 25.1 98.2478 26.78 98.0378 27.9C97.8278 29.02 97.6878 30.21 97.6178 30.42L97.5478 30.98L98.1778 31.05C99.5778 31.4 101.118 32.52 101.678 33.57ZM85.9978 9.35C85.7878 9.7 85.3678 9.77 85.1578 9.56C84.9478 9.35 85.0178 8.72 85.2978 8.16C85.4378 7.81 85.5078 7.74 85.7878 7.74C86.4178 7.74 86.4878 8.37 85.9978 9.35ZM67.0978 51.49C67.6578 51.49 67.8678 52.4 67.3778 52.82C67.0978 53.03 66.6078 53.1 66.5378 52.82C66.3278 52.33 66.6778 51.49 67.0978 51.49ZM92.9978 51.21C93.1378 50.79 93.4878 50.58 93.7678 50.58C94.3978 50.58 95.0978 51.28 94.8178 52.19C94.7478 52.4 94.6078 52.68 94.4678 52.75C94.1878 52.96 93.6278 52.96 93.3478 52.68C93.2778 52.54 93.0678 52.26 92.9978 52.05C92.8578 51.7 92.8578 51.56 92.9978 51.21ZM103.184 46.66C103.324 47.15 102.694 47.92 102.204 47.92C101.994 47.92 101.854 47.85 101.784 47.71C101.574 47.22 101.784 46.87 102.344 46.66C102.974 46.38 103.114 46.38 103.184 46.66ZM129.994 43.02C130.064 43.58 129.784 44.21 129.364 44.49C128.874 44.84 128.594 45.33 128.454 46.03L128.314 46.59L127.474 47.08C126.984 47.36 126.494 47.78 126.354 47.92C126.074 48.27 125.794 48.27 124.884 47.92C124.464 47.71 124.044 47.64 123.834 47.64C122.854 47.64 120.614 48.2 117.954 49.18C117.534 49.32 116.764 49.39 116.484 49.25C116.344 49.25 116.274 49.11 116.274 48.97C116.274 48.83 116.204 48.69 116.204 48.69C116.134 48.69 115.364 48.9 114.524 49.18C113.684 49.46 112.634 49.74 112.214 49.81C111.864 49.88 111.024 50.09 110.534 50.3C109.134 50.93 108.434 51.07 106.754 51.21C105.984 51.28 105.004 51.35 104.584 51.42C103.464 51.56 103.254 51.56 103.044 51.28C102.624 50.72 103.044 49.81 104.024 49.11C104.584 48.69 105.004 47.78 104.864 47.29C104.654 46.66 104.724 46.31 105.144 45.96L105.494 45.54L105.284 45.4C104.654 44.91 104.234 44.21 104.164 43.58C104.164 43.23 104.514 41.97 105.284 39.59C105.914 37.84 106.404 35.81 106.544 34.41C106.684 33.29 106.964 32.52 107.874 31.26C108.714 30 109.134 29.02 109.344 27.83C109.554 26.5 109.764 25.94 110.674 23.98C111.864 21.39 112.634 19.08 112.774 17.54C112.844 16.84 112.914 16.49 113.264 15.93C113.474 15.51 113.754 14.74 113.894 14.25C114.314 12.92 115.504 9.28 115.854 8.65C115.994 8.37 116.204 8.02 116.274 7.88C116.414 7.74 116.624 7.18 116.764 6.69C116.904 6.06 118.024 3.47 118.584 3.33C118.724 3.33 119.004 3.4 119.144 3.47C119.564 3.75 119.634 4.1 119.424 4.52C119.354 4.73 119.214 5.36 119.074 5.85C118.934 6.41 118.584 7.39 118.304 8.02C117.114 10.33 113.264 21.25 113.264 22.3L113.334 22.37C113.404 22.37 113.544 22.09 113.684 21.74C114.314 20.13 115.364 17.47 115.784 16.7C115.994 16.28 116.274 15.58 116.484 15.09C117.394 13.27 118.374 11.31 118.584 9.28C118.654 8.44 118.724 8.16 119.144 7.18C119.634 6.2 120.684 4.52 121.034 4.24C121.104 4.17 121.244 4.03 121.384 3.89C122.574 2.56 122.574 2.56 123.064 2.56C124.044 2.56 124.464 3.05 124.604 4.52C124.674 5.01 124.814 5.5 124.954 5.85C125.094 6.13 125.234 6.62 125.234 7.18C125.304 7.67 125.444 8.23 125.514 8.58C125.724 9.49 125.374 10.47 123.134 16.14C122.784 17.05 122.294 18.31 122.014 19.01C121.664 20.13 120.334 23.35 119.564 25.17C119.354 25.73 119.284 25.94 119.354 26.36C119.424 27.06 119.354 27.27 118.654 28.18C118.024 29.02 117.744 29.58 117.254 31.12C117.044 31.75 116.694 32.66 116.344 33.22C116.064 33.85 115.574 35.11 115.154 36.37C114.734 37.49 114.244 38.96 113.894 39.59C113.194 41.2 112.914 41.9 113.054 41.9C113.334 41.9 114.384 41.48 115.014 41.13C115.574 40.85 115.924 40.71 116.414 40.71C116.694 40.71 117.044 40.78 117.464 40.92C118.024 41.06 118.024 41.06 119.424 40.78C120.824 40.5 122.084 40.36 123.204 40.36C124.534 40.36 125.654 40.57 126.634 40.92C127.054 41.13 127.754 41.34 128.034 41.41C129.294 41.76 129.924 42.25 129.994 43.02ZM132.559 46.66C132.699 47.15 132.069 47.92 131.579 47.92C131.369 47.92 131.229 47.85 131.159 47.71C130.949 47.22 131.159 46.87 131.719 46.66C132.349 46.38 132.489 46.38 132.559 46.66ZM159.369 43.02C159.439 43.58 159.159 44.21 158.739 44.49C158.249 44.84 157.969 45.33 157.829 46.03L157.689 46.59L156.849 47.08C156.359 47.36 155.869 47.78 155.729 47.92C155.449 48.27 155.169 48.27 154.259 47.92C153.839 47.71 153.419 47.64 153.209 47.64C152.229 47.64 149.989 48.2 147.329 49.18C146.909 49.32 146.139 49.39 145.859 49.25C145.719 49.25 145.649 49.11 145.649 48.97C145.649 48.83 145.579 48.69 145.579 48.69C145.509 48.69 144.739 48.9 143.899 49.18C143.059 49.46 142.009 49.74 141.589 49.81C141.239 49.88 140.399 50.09 139.909 50.3C138.509 50.93 137.809 51.07 136.129 51.21C135.359 51.28 134.379 51.35 133.959 51.42C132.839 51.56 132.629 51.56 132.419 51.28C131.999 50.72 132.419 49.81 133.399 49.11C133.959 48.69 134.379 47.78 134.239 47.29C134.029 46.66 134.099 46.31 134.519 45.96L134.869 45.54L134.659 45.4C134.029 44.91 133.609 44.21 133.539 43.58C133.539 43.23 133.889 41.97 134.659 39.59C135.289 37.84 135.779 35.81 135.919 34.41C136.059 33.29 136.339 32.52 137.249 31.26C138.089 30 138.509 29.02 138.719 27.83C138.929 26.5 139.139 25.94 140.049 23.98C141.239 21.39 142.009 19.08 142.149 17.54C142.219 16.84 142.289 16.49 142.639 15.93C142.849 15.51 143.129 14.74 143.269 14.25C143.689 12.92 144.879 9.28 145.229 8.65C145.369 8.37 145.579 8.02 145.649 7.88C145.789 7.74 145.999 7.18 146.139 6.69C146.279 6.06 147.399 3.47 147.959 3.33C148.099 3.33 148.379 3.4 148.519 3.47C148.939 3.75 149.009 4.1 148.799 4.52C148.729 4.73 148.589 5.36 148.449 5.85C148.309 6.41 147.959 7.39 147.679 8.02C146.489 10.33 142.639 21.25 142.639 22.3L142.709 22.37C142.779 22.37 142.919 22.09 143.059 21.74C143.689 20.13 144.739 17.47 145.159 16.7C145.369 16.28 145.649 15.58 145.859 15.09C146.769 13.27 147.749 11.31 147.959 9.28C148.029 8.44 148.099 8.16 148.519 7.18C149.009 6.2 150.059 4.52 150.409 4.24C150.479 4.17 150.619 4.03 150.759 3.89C151.949 2.56 151.949 2.56 152.439 2.56C153.419 2.56 153.839 3.05 153.979 4.52C154.049 5.01 154.189 5.5 154.329 5.85C154.469 6.13 154.609 6.62 154.609 7.18C154.679 7.67 154.819 8.23 154.889 8.58C155.099 9.49 154.749 10.47 152.509 16.14C152.159 17.05 151.669 18.31 151.389 19.01C151.039 20.13 149.709 23.35 148.939 25.17C148.729 25.73 148.659 25.94 148.729 26.36C148.799 27.06 148.729 27.27 148.029 28.18C147.399 29.02 147.119 29.58 146.629 31.12C146.419 31.75 146.069 32.66 145.719 33.22C145.439 33.85 144.949 35.11 144.529 36.37C144.109 37.49 143.619 38.96 143.269 39.59C142.569 41.2 142.289 41.9 142.429 41.9C142.709 41.9 143.759 41.48 144.389 41.13C144.949 40.85 145.299 40.71 145.789 40.71C146.069 40.71 146.419 40.78 146.839 40.92C147.399 41.06 147.399 41.06 148.799 40.78C150.199 40.5 151.459 40.36 152.579 40.36C153.909 40.36 155.029 40.57 156.009 40.92C156.429 41.13 157.129 41.34 157.409 41.41C158.669 41.76 159.299 42.25 159.369 43.02ZM191.895 46.45C192.245 46.24 192.525 46.38 192.595 46.94C192.595 47.22 192.525 47.36 192.245 47.64C191.895 47.99 191.475 48.06 191.335 47.78C191.335 47.71 191.335 47.43 191.405 47.22C191.475 47.01 191.545 46.73 191.545 46.73C191.545 46.66 191.755 46.52 191.895 46.45ZM193.505 26.85C193.995 26.85 194.065 26.92 194.065 27.27C194.065 27.48 193.995 27.62 193.575 27.83C193.365 27.97 193.155 28.18 193.155 28.32C193.155 28.67 192.805 28.95 192.315 28.95C192.105 28.95 191.825 28.88 191.755 28.81C191.545 28.6 191.615 28.46 192.385 27.62C193.015 26.92 193.155 26.85 193.505 26.85ZM160.185 47.78C160.605 47.78 160.745 47.78 160.955 47.92C161.235 48.27 161.235 48.55 160.815 48.83C160.465 49.18 159.765 49.25 159.555 49.04C159.345 48.83 159.415 48.27 159.555 48.06C159.625 47.92 159.905 47.85 160.185 47.78ZM204.285 8.51C204.495 8.72 204.495 8.72 204.355 9.07C204.075 9.42 203.585 9.49 203.445 9.07C203.305 8.72 203.375 8.58 203.725 8.37C204.005 8.3 204.075 8.3 204.285 8.51ZM171.595 11.59C171.385 11.52 171.385 11.38 171.385 11.03C171.385 10.68 171.385 10.61 171.665 10.47C172.085 10.26 172.505 10.47 172.575 10.96C172.645 11.52 172.155 11.87 171.595 11.59ZM203.655 4.73L203.585 5.85C203.585 7.67 203.585 7.6 202.675 7.81C200.925 8.16 199.455 8.44 197.985 8.65C195.885 8.93 191.615 9.07 191.615 9.21C191.615 9.28 192.385 9.35 193.365 9.35C194.695 9.35 196.445 9.28 197.565 9.07C198.965 8.79 202.325 8.65 202.395 8.79C202.535 9 202.395 9.14 201.695 9.42C201.205 9.63 200.785 9.77 200.015 9.84C199.315 9.84 198.825 9.98 198.475 10.12C198.125 10.26 197.495 10.4 196.935 10.47C196.375 10.54 191.965 10.61 191.685 10.75C191.195 10.96 190.845 10.96 189.725 10.82C189.025 10.75 188.885 10.75 188.815 10.96C188.815 11.03 188.675 11.1 188.605 11.1C188.325 11.1 187.835 12.08 187.555 13.13C187.415 13.69 187.275 13.9 186.785 14.39L186.155 15.02L186.085 16C186.015 16.98 185.945 17.12 184.545 20.62C183.215 24.05 183.145 24.26 183.355 24.33C183.845 24.47 184.475 24.4 185.105 24.12C186.015 23.63 186.365 23.63 186.925 23.84C187.345 23.91 187.625 23.98 188.045 23.91C188.395 23.84 189.445 23.84 190.495 23.77H192.315L192.665 24.12C192.945 24.4 193.015 24.54 193.015 24.89C193.015 25.31 192.945 25.38 192.525 25.8C192.245 26.01 191.965 26.36 191.895 26.5C191.825 26.71 191.615 27.06 191.405 27.27C191.195 27.48 190.775 28.04 190.565 28.39C190.145 29.02 190.075 29.16 190.215 29.44C190.495 30.07 190.355 30.28 189.445 30.98C188.885 31.4 188.465 31.47 186.925 31.61C185.455 31.61 183.425 31.82 181.535 32.17C180.905 32.24 180.065 32.31 179.575 32.38C176.985 32.73 176.705 32.8 176.705 33.08C176.705 33.22 177.125 33.22 178.175 33.22C179.015 33.22 179.645 33.29 179.715 33.29C179.715 33.36 179.645 33.64 179.575 34.06C179.435 34.41 179.365 35.25 179.295 35.95C179.225 37.42 179.085 37.63 178.175 39.17C177.475 40.22 176.845 41.41 176.985 41.55C176.985 41.55 177.475 41.48 178.105 41.41C178.735 41.27 179.855 41.2 180.625 41.13C181.325 41.13 182.235 40.99 182.515 40.92C182.865 40.85 183.565 40.78 184.195 40.71C184.755 40.64 185.875 40.5 186.785 40.43C187.625 40.36 188.675 40.29 189.095 40.29C189.515 40.29 190.005 40.22 190.285 40.15C190.495 40.01 190.985 39.94 191.335 39.94C191.895 39.87 192.245 39.94 193.225 40.43C193.645 40.64 193.645 41.06 193.225 41.48C193.085 41.69 192.735 42.18 192.525 42.67C192.315 43.16 192.105 43.51 192.035 43.58C192.035 43.58 191.965 43.79 191.895 44C191.825 44.21 191.685 44.56 191.475 44.77C191.265 44.98 190.985 45.54 190.845 45.89C190.705 46.38 190.565 46.73 190.355 46.8C190.215 46.94 187.345 47.36 186.995 47.43C185.525 47.78 184.265 47.92 182.655 48.06C181.395 48.13 177.405 48.97 177.965 49.04C178.175 49.04 178.945 48.97 179.645 48.83C180.345 48.69 181.605 48.55 182.375 48.48C183.145 48.41 184.615 48.27 185.595 48.2C186.645 48.06 187.625 47.92 187.835 47.92C188.115 47.92 188.535 47.85 188.885 47.78C189.655 47.57 190.215 47.64 190.495 47.99C190.635 48.2 190.635 48.34 190.565 48.48C190.425 48.83 190.215 48.9 189.515 48.9C188.325 48.9 185.385 49.32 183.985 49.6C181.885 50.16 180.205 50.37 179.085 50.3C178.385 50.23 177.825 50.23 177.125 50.37C175.515 50.65 174.185 50.72 173.555 50.65C172.785 50.51 172.365 50.44 171.945 50.44C171.525 50.44 171.175 50.51 170.545 50.72C169.495 51 169.425 51 168.515 50.86C167.745 50.79 167.465 50.79 166.905 50.93C166.135 51.14 165.925 51.14 165.435 50.93C165.155 50.79 164.665 50.72 164.175 50.72C162.635 50.79 162.495 50.51 162.635 48.76C162.705 47.99 162.705 47.5 162.635 47.36C162.635 47.29 162.285 47.08 161.935 46.87C161.025 46.31 160.815 45.75 161.445 45.05C161.865 44.49 162.565 44.28 163.965 44.14C164.665 44.14 165.505 44 165.785 43.86L166.345 43.65L166.555 42.95C166.695 42.53 166.975 41.62 167.185 41.06C168.165 38.54 168.865 36.44 168.865 35.74C168.865 34.97 169.005 34.69 169.705 34.06C170.195 33.57 170.335 33.22 170.405 32.38C170.475 31.89 170.545 31.54 170.825 31.05C171.245 30.28 171.245 30.21 170.755 29.51C170.475 29.16 170.475 28.88 170.685 28.6C170.825 28.46 170.825 28.39 170.615 27.97C170.335 27.48 170.405 26.92 170.895 26.43C171.385 25.87 172.155 25.38 172.645 25.38C172.995 25.38 172.995 25.31 173.275 24.61C173.485 24.26 173.765 23.56 174.045 23.14C174.255 22.72 174.535 22.02 174.675 21.32C174.885 20.41 174.885 20.27 174.745 20.06C174.675 19.92 174.535 19.57 174.535 19.36C174.465 19.01 174.465 18.87 174.745 18.45C174.955 18.24 175.165 18.03 175.305 17.96C175.515 17.89 175.655 17.54 175.795 16.91C176.145 16.28 176.355 15.51 176.495 14.81C176.565 14.39 176.775 13.69 176.985 13.27C177.195 12.85 177.405 12.29 177.405 12.01C177.475 11.52 177.475 11.45 177.195 11.38C177.055 11.31 176.705 11.17 176.495 11.17C176.215 11.1 175.795 10.96 175.515 10.82C175.235 10.68 174.815 10.54 174.675 10.54C173.905 10.54 173.345 10.12 173.205 9.56C173.205 9.42 172.995 9.21 172.715 9.14C172.155 8.86 171.945 8.58 171.945 8.16C171.945 7.32 172.505 6.69 173.275 6.48C174.465 6.2 175.375 5.78 176.005 5.22C176.915 4.45 177.265 4.31 178.945 4.24C179.925 4.17 180.555 4.1 181.255 3.89C182.655 3.47 183.985 3.4 185.315 3.54C186.085 3.61 186.645 3.61 187.135 3.54C188.745 3.33 191.825 3.12 192.245 3.26C192.455 3.33 196.725 3.33 197.215 3.26C198.405 3.19 199.035 3.12 199.455 3.12C199.875 3.12 200.085 3.19 200.505 3.33C200.855 3.47 201.415 3.54 201.695 3.54C202.325 3.54 202.605 3.75 203.165 4.31L203.655 4.73ZM212.374 8.23C212.794 7.32 213.074 6.27 212.864 6.13C212.794 6.06 212.794 6.06 212.724 6.06C212.514 6.06 212.164 6.97 211.324 9.49L209.294 15.58C209.154 15.79 209.084 16.07 209.084 16.21C209.084 16.42 209.154 16.42 209.294 16.28C209.364 16.14 209.504 15.72 209.644 15.37C210.274 13.34 211.744 9.35 212.374 8.23ZM202.924 29.37C202.574 30 202.294 30.14 201.944 29.72C201.664 29.44 201.664 29.37 202.154 28.39C202.644 27.48 202.784 27.27 203.134 27.41C203.554 27.55 203.484 28.18 202.924 29.37ZM236.804 5.43C237.364 6.06 237.644 6.69 237.714 7.6C237.784 8.3 237.714 8.51 237.224 10.05C236.944 10.96 236.594 11.94 236.454 12.22C236.314 12.71 236.314 12.71 236.524 13.34L236.734 13.97L236.454 14.6C236.244 14.95 236.034 15.3 235.684 15.51C234.844 16.07 234.564 16.77 234.354 18.87C234.074 20.69 233.654 21.88 232.674 23.35C232.394 23.77 232.114 24.33 232.044 24.75C231.554 26.36 230.924 28.25 230.504 29.16C230.224 29.65 229.874 30.49 229.734 31.05C229.524 31.61 229.034 32.73 228.614 33.64C228.194 34.55 227.774 35.53 227.704 35.81C227.634 36.09 227.284 36.86 227.004 37.56C226.444 38.82 224.974 42.53 224.974 42.74C224.974 42.81 225.044 42.88 225.114 42.88C225.324 42.88 225.814 41.9 226.374 40.43C226.584 39.94 226.934 39.17 227.144 38.75C227.354 38.33 227.634 37.77 227.774 37.42C227.844 37.21 227.984 36.93 227.984 37C228.054 37.07 227.774 38.89 227.634 39.38C226.864 41.2 226.164 43.09 225.464 44.91C225.114 45.89 224.624 47.36 224.274 48.27C223.924 49.18 223.504 50.16 223.364 50.44C222.944 51 222.174 51.56 221.684 51.56C221.544 51.56 221.194 51.63 220.914 51.7C220.074 52.12 219.794 52.12 219.094 51.63C218.464 51.21 218.184 50.86 217.624 50.09C217.484 49.88 217.274 49.74 216.784 49.67C214.054 49.18 214.054 42.81 214.054 40.85C214.054 39.59 213.984 38.26 213.914 37.42C213.774 36.23 213.704 35.81 213.844 34.83C213.984 33.64 213.914 33.08 213.634 32.17C213.494 31.75 213.494 30.35 213.634 29.79C213.774 29.3 213.774 28.6 213.564 28.11C213.494 27.83 213.424 27.34 213.424 26.85C213.424 26.43 213.354 26.01 213.354 26.01C213.214 26.01 212.024 29.09 211.744 30.14C211.604 30.84 211.254 31.75 210.904 32.52C210.414 33.5 210.274 33.92 210.204 34.55C210.064 35.74 209.714 36.3 209.014 36.3C208.734 36.3 208.594 36.3 208.594 36.37C209.084 37.28 209.084 37.42 209.014 37.84C208.944 38.12 208.734 38.61 208.454 39.03C208.244 39.45 207.824 40.78 207.404 41.97C207.054 43.16 206.494 44.84 206.214 45.61C205.724 46.8 205.234 48.06 204.954 49.32C204.884 49.67 204.744 49.81 204.254 50.02C203.694 50.3 203.554 50.37 202.994 50.3C202.364 50.23 202.224 50.3 201.874 50.51C201.664 50.65 201.314 50.79 201.174 50.86C200.964 51 200.684 51.28 200.474 51.56C199.844 52.61 199.564 52.82 199.214 52.4C199.144 52.33 199.074 52.05 199.074 51.84C199.074 51.35 198.864 50.79 198.374 50.09C198.094 49.67 197.884 49.25 197.814 48.69C197.744 48.27 197.604 47.85 197.534 47.71C197.394 47.57 197.394 47.29 197.394 47.01C197.464 46.73 197.394 46.38 197.254 45.96C196.974 45.12 196.974 44.56 197.184 43.51C197.464 42.6 198.444 39.87 199.144 38.12C199.494 37.21 201.034 33.01 201.034 32.87H201.174C201.454 32.87 201.454 33.15 201.034 34.48C200.614 35.6 200.474 36.23 200.194 37.56C200.264 37.56 200.684 36.23 201.524 34.13C202.364 31.75 202.714 31.05 203.344 30.42L203.834 29.93L203.764 29.09C203.554 27.13 203.694 26.43 204.814 23.49C206.424 19.57 206.354 19.85 206.214 19.29C205.934 18.38 206.424 17.19 207.054 17.19C207.404 17.19 207.544 16.84 207.684 15.72C207.894 14.46 209.294 10.4 210.624 7.32C211.254 5.78 211.884 4.24 211.954 3.96C212.094 3.54 212.304 3.26 212.654 2.84C213.144 2.42 213.284 2.35 213.634 2.35C214.124 2.35 214.684 2.7 215.034 3.26C215.244 3.61 215.594 3.82 216.854 4.52C217.764 5.08 219.094 6.27 219.444 6.9C219.584 7.18 219.654 7.81 219.794 9.21C220.074 12.71 220.284 14.46 220.704 15.37C221.194 16.42 221.264 16.91 221.054 18.24C220.914 19.01 220.914 20.2 220.914 21.67C220.914 23.63 220.914 24.05 221.124 24.54C221.474 25.73 221.544 26.29 221.404 27.62C221.334 28.32 221.334 29.44 221.334 30.07V31.19L221.544 30.49C222.034 28.95 223.924 23.63 224.274 22.93C224.484 22.51 224.834 21.88 225.044 21.6C225.674 20.76 225.814 20.34 225.814 19.5C226.094 16.28 229.104 7.67 231.484 5.92C232.184 5.36 232.184 5.36 232.604 4.31C233.024 3.33 233.304 2.91 234.144 2.49C234.844 2.07 235.404 2.07 235.824 2.42C235.964 2.63 236.034 2.84 236.104 3.61C236.174 4.59 236.314 4.8 236.804 5.43ZM229.944 32.8C230.014 32.87 230.084 33.01 230.084 33.22C230.154 33.5 230.084 33.71 229.734 34.48C229.244 35.46 229.034 35.6 228.754 35.25C228.544 34.9 228.614 34.48 229.034 33.92C229.174 33.71 229.314 33.43 229.384 33.22C229.454 32.94 229.734 32.73 229.944 32.8ZM238.134 0.949998C238.834 0.669997 239.324 1.23 238.904 1.86C238.834 2.07 238.554 2.56 238.414 2.91C238.064 3.61 237.854 3.89 237.574 3.89C237.434 3.89 237.364 3.82 237.364 3.75C237.294 3.61 237.364 3.26 237.434 2.84C237.574 2.49 237.644 2.07 237.714 1.86C237.784 1.16 237.854 1.09 238.134 0.949998ZM273.274 24.75C273.764 25.52 273.764 25.87 273.484 26.71C273.344 26.99 273.204 27.48 273.134 27.76C272.924 28.67 272.014 29.16 270.334 29.23C269.704 29.23 269.144 29.3 268.444 29.51L267.534 29.79L267.254 30.42C267.114 30.7 266.974 31.12 266.904 31.33C266.904 31.54 266.764 31.89 266.624 32.1C266.414 32.45 266.204 33.15 265.994 34.27C265.924 34.41 265.714 34.9 265.364 35.32C264.874 36.16 264.664 36.51 264.594 37.35C264.524 37.56 264.314 38.05 264.034 38.47C263.754 38.89 263.544 39.38 263.474 39.59C263.264 41.41 263.054 41.83 261.864 43.65C261.584 44.07 261.514 44.35 261.514 44.91C261.444 45.54 261.374 45.68 261.024 46.24C260.744 46.59 260.464 47.08 260.324 47.43C259.974 48.55 259.134 49.88 258.854 49.88C258.574 49.88 258.644 49.6 259.204 48.06C260.184 45.54 261.234 42.53 261.724 40.99C262.564 38.12 262.704 37.63 263.124 36.37C263.404 35.46 263.544 34.97 263.404 34.97C263.124 34.97 262.074 37.63 260.884 41.27C260.464 42.6 259.904 43.79 259.064 45.61C258.154 47.36 257.454 49.18 257.454 49.81C257.454 50.44 257.384 50.58 256.824 51C256.614 51.14 256.264 51.49 256.124 51.77C255.424 52.89 254.934 53.31 254.444 53.31C254.304 53.31 254.094 53.31 253.954 53.17C253.324 52.75 253.254 52.47 253.534 51.35C253.674 50.86 253.744 50.23 253.744 48.2C253.744 45.82 253.744 45.54 254.024 44.77C254.164 44.35 254.234 43.93 254.234 43.86C254.094 43.79 253.044 44.63 253.044 44.77C253.044 44.91 252.834 45.19 252.554 45.47C252.274 45.75 251.854 46.24 251.644 46.52C251.364 46.94 251.084 47.15 250.524 47.36C249.824 47.71 249.334 48.2 248.494 49.11C248.074 49.67 247.934 49.74 247.514 49.81C246.954 49.88 246.464 50.02 245.904 50.23C245.764 50.3 245.484 50.37 245.204 50.44C244.434 50.72 243.524 50.79 242.754 50.79C240.164 50.79 238.624 50.16 237.014 47.92C236.034 46.38 235.754 45.26 235.754 41.76C235.684 39.38 235.684 39.1 235.474 38.61C235.124 37.91 235.194 37.49 235.544 36.79C235.754 36.44 235.894 36.09 235.894 36.02C235.894 35.88 236.174 35.6 236.454 35.32C237.084 34.69 237.714 33.64 237.924 32.8C238.694 29.72 239.604 26.78 241.354 24.05C241.914 22.93 243.734 20.2 244.714 18.87C245.134 18.38 245.554 17.68 245.904 16.98C246.254 16 246.814 15.09 248.004 13.41C248.074 13.34 247.934 13.41 247.654 13.62C247.374 13.9 246.954 14.32 246.744 14.67C246.534 15.02 246.044 15.51 245.834 15.72C245.344 16.21 244.924 16.84 244.504 17.96C244.434 18.31 244.154 18.66 244.014 18.8C243.874 18.94 243.664 19.29 243.524 19.57C243.174 20.34 242.754 20.55 242.404 20.06C242.264 19.78 242.264 19.71 242.404 19.36C242.474 19.15 242.894 18.66 243.314 18.24C243.874 17.61 244.154 17.19 244.504 16.49C244.714 16 245.134 15.37 245.344 15.16C245.554 14.95 245.974 14.18 246.324 13.55C247.094 11.87 248.844 10.26 250.454 9.35C251.434 8.79 251.504 8.72 251.854 8.16C252.344 7.25 252.554 7.04 253.464 6.55C256.754 4.94 257.524 4.52 257.944 4.17C259.344 3.12 259.554 3.05 260.954 3.05C264.244 2.91 268.164 3.12 268.864 3.47C269.004 3.61 270.334 4.59 270.474 4.59C270.894 4.73 271.804 5.99 272.154 6.9C272.644 8.09 272.714 8.51 272.714 10.19C272.714 11.03 272.784 12.01 272.854 12.36C273.064 13.62 272.294 16 271.314 17.12C271.034 17.47 270.614 18.17 270.334 18.73C269.774 19.85 269.564 19.99 269.004 19.71C268.654 19.5 268.514 19.43 268.374 18.87C268.164 18.1 267.814 17.75 267.044 17.33C266.134 16.84 265.994 16.63 265.924 15.72C265.714 14.46 265.294 13.06 264.874 11.87C264.664 10.75 264.454 10.33 264.034 10.33C263.824 10.33 263.614 10.4 263.334 10.54C262.704 10.82 262.214 11.38 261.584 12.29C261.304 12.64 260.744 13.2 260.324 13.55C259.904 13.9 258.994 14.74 258.294 15.44C257.594 16.14 256.824 16.84 256.614 16.98C256.124 17.26 254.374 19.36 253.394 20.9C253.184 21.18 252.694 21.81 252.344 22.23C251.504 23.21 251.364 23.42 251.014 24.61C250.734 25.66 250.384 26.36 249.474 27.62C249.124 28.11 248.564 29.02 248.284 29.58C248.004 30.28 247.654 30.84 247.374 31.12C246.954 31.54 246.744 31.89 246.604 32.45C246.464 33.36 245.764 35.53 245.344 36.23C244.784 37.28 244.224 39.24 244.154 40.22C244.084 40.85 244.084 40.99 244.294 41.2L244.504 41.48L245.134 41.27C245.484 41.13 246.044 41.06 246.324 41.06C246.814 41.06 246.884 40.99 247.444 40.36C248.494 39.17 250.314 37.35 250.944 37C251.364 36.72 251.714 36.58 252.064 36.51C252.484 36.44 252.554 36.44 253.044 35.81C253.324 35.46 253.604 34.9 253.814 34.55C254.164 33.64 254.304 33.57 255.004 33.57H255.634L256.614 32.52C258.224 30.7 258.294 30.7 258.084 30.56C257.944 30.56 257.594 30.56 257.244 30.63C256.894 30.7 256.194 30.84 255.774 30.91C254.374 31.05 252.904 31.33 252.274 31.47C251.364 31.75 250.734 31.68 250.384 31.33C250.174 31.12 250.104 30.98 250.174 30.63C250.174 30.35 250.314 30 250.454 29.86C250.524 29.72 250.664 29.37 250.734 29.16C250.804 28.95 250.944 28.32 251.154 27.69C251.434 26.78 251.504 26.57 251.854 26.29C252.064 26.08 252.484 25.66 252.834 25.31C253.954 24.19 254.794 23.98 258.014 23.98C258.784 23.98 259.834 23.91 260.394 23.84C260.884 23.7 262.074 23.56 263.054 23.42C265.434 23.14 265.924 23 266.904 22.86C267.254 22.79 267.604 22.72 267.884 22.72C268.444 22.72 268.934 22.93 269.844 23.35C270.754 23.77 271.174 23.91 271.664 23.91C272.714 23.98 272.784 24.05 273.274 24.75ZM266.904 19.08C267.184 18.94 267.674 19.22 267.744 19.5C267.744 19.64 267.604 19.85 267.464 20.06C267.254 20.34 267.114 20.41 266.764 20.41C266.554 20.41 266.344 20.34 266.274 20.34C266.204 20.27 266.134 20.2 266.134 20.06C266.134 19.71 266.414 19.08 266.554 19.08C266.624 19.15 266.834 19.08 266.904 19.08ZM257.804 51.56C258.154 50.86 258.434 50.72 258.644 51C258.854 51.28 258.784 51.91 258.504 52.47C258.224 52.89 258.084 52.96 257.734 52.75C257.384 52.54 257.454 52.19 257.804 51.56ZM299.298 46.45C299.648 46.24 299.928 46.38 299.998 46.94C299.998 47.22 299.928 47.36 299.648 47.64C299.298 47.99 298.878 48.06 298.738 47.78C298.738 47.71 298.738 47.43 298.808 47.22C298.878 47.01 298.948 46.73 298.948 46.73C298.948 46.66 299.158 46.52 299.298 46.45ZM300.908 26.85C301.398 26.85 301.468 26.92 301.468 27.27C301.468 27.48 301.398 27.62 300.978 27.83C300.768 27.97 300.558 28.18 300.558 28.32C300.558 28.67 300.208 28.95 299.718 28.95C299.508 28.95 299.228 28.88 299.158 28.81C298.948 28.6 299.018 28.46 299.788 27.62C300.418 26.92 300.558 26.85 300.908 26.85ZM267.588 47.78C268.008 47.78 268.148 47.78 268.358 47.92C268.638 48.27 268.638 48.55 268.218 48.83C267.868 49.18 267.168 49.25 266.958 49.04C266.748 48.83 266.818 48.27 266.958 48.06C267.028 47.92 267.308 47.85 267.588 47.78ZM311.688 8.51C311.898 8.72 311.898 8.72 311.758 9.07C311.478 9.42 310.988 9.49 310.848 9.07C310.708 8.72 310.778 8.58 311.128 8.37C311.408 8.3 311.478 8.3 311.688 8.51ZM278.998 11.59C278.788 11.52 278.788 11.38 278.788 11.03C278.788 10.68 278.788 10.61 279.068 10.47C279.488 10.26 279.908 10.47 279.978 10.96C280.048 11.52 279.558 11.87 278.998 11.59ZM311.058 4.73L310.988 5.85C310.988 7.67 310.988 7.6 310.078 7.81C308.328 8.16 306.858 8.44 305.388 8.65C303.288 8.93 299.018 9.07 299.018 9.21C299.018 9.28 299.788 9.35 300.768 9.35C302.098 9.35 303.848 9.28 304.968 9.07C306.368 8.79 309.728 8.65 309.798 8.79C309.938 9 309.798 9.14 309.098 9.42C308.608 9.63 308.188 9.77 307.418 9.84C306.718 9.84 306.228 9.98 305.878 10.12C305.528 10.26 304.898 10.4 304.338 10.47C303.778 10.54 299.368 10.61 299.088 10.75C298.598 10.96 298.248 10.96 297.128 10.82C296.428 10.75 296.288 10.75 296.218 10.96C296.218 11.03 296.078 11.1 296.008 11.1C295.728 11.1 295.238 12.08 294.958 13.13C294.818 13.69 294.678 13.9 294.188 14.39L293.558 15.02L293.488 16C293.418 16.98 293.348 17.12 291.948 20.62C290.618 24.05 290.548 24.26 290.758 24.33C291.248 24.47 291.878 24.4 292.508 24.12C293.418 23.63 293.768 23.63 294.328 23.84C294.748 23.91 295.028 23.98 295.448 23.91C295.798 23.84 296.848 23.84 297.898 23.77H299.718L300.068 24.12C300.348 24.4 300.418 24.54 300.418 24.89C300.418 25.31 300.348 25.38 299.928 25.8C299.648 26.01 299.368 26.36 299.298 26.5C299.228 26.71 299.018 27.06 298.808 27.27C298.598 27.48 298.178 28.04 297.968 28.39C297.548 29.02 297.478 29.16 297.618 29.44C297.898 30.07 297.758 30.28 296.848 30.98C296.288 31.4 295.868 31.47 294.328 31.61C292.858 31.61 290.828 31.82 288.938 32.17C288.308 32.24 287.468 32.31 286.978 32.38C284.388 32.73 284.108 32.8 284.108 33.08C284.108 33.22 284.528 33.22 285.578 33.22C286.418 33.22 287.048 33.29 287.118 33.29C287.118 33.36 287.048 33.64 286.978 34.06C286.838 34.41 286.768 35.25 286.698 35.95C286.628 37.42 286.488 37.63 285.578 39.17C284.878 40.22 284.248 41.41 284.388 41.55C284.388 41.55 284.878 41.48 285.508 41.41C286.138 41.27 287.258 41.2 288.028 41.13C288.728 41.13 289.638 40.99 289.918 40.92C290.268 40.85 290.968 40.78 291.598 40.71C292.158 40.64 293.278 40.5 294.188 40.43C295.028 40.36 296.078 40.29 296.498 40.29C296.918 40.29 297.408 40.22 297.688 40.15C297.898 40.01 298.388 39.94 298.738 39.94C299.298 39.87 299.648 39.94 300.628 40.43C301.048 40.64 301.048 41.06 300.628 41.48C300.488 41.69 300.138 42.18 299.928 42.67C299.718 43.16 299.508 43.51 299.438 43.58C299.438 43.58 299.368 43.79 299.298 44C299.228 44.21 299.088 44.56 298.878 44.77C298.668 44.98 298.388 45.54 298.248 45.89C298.108 46.38 297.968 46.73 297.758 46.8C297.618 46.94 294.748 47.36 294.398 47.43C292.928 47.78 291.668 47.92 290.058 48.06C288.798 48.13 284.808 48.97 285.368 49.04C285.578 49.04 286.348 48.97 287.048 48.83C287.748 48.69 289.008 48.55 289.778 48.48C290.548 48.41 292.018 48.27 292.998 48.2C294.048 48.06 295.028 47.92 295.238 47.92C295.518 47.92 295.938 47.85 296.288 47.78C297.058 47.57 297.618 47.64 297.898 47.99C298.038 48.2 298.038 48.34 297.968 48.48C297.828 48.83 297.618 48.9 296.918 48.9C295.728 48.9 292.788 49.32 291.388 49.6C289.288 50.16 287.608 50.37 286.488 50.3C285.788 50.23 285.228 50.23 284.528 50.37C282.918 50.65 281.588 50.72 280.958 50.65C280.188 50.51 279.768 50.44 279.348 50.44C278.928 50.44 278.578 50.51 277.948 50.72C276.898 51 276.828 51 275.918 50.86C275.148 50.79 274.868 50.79 274.308 50.93C273.538 51.14 273.328 51.14 272.838 50.93C272.558 50.79 272.068 50.72 271.578 50.72C270.038 50.79 269.898 50.51 270.038 48.76C270.108 47.99 270.108 47.5 270.038 47.36C270.038 47.29 269.688 47.08 269.338 46.87C268.428 46.31 268.218 45.75 268.848 45.05C269.268 44.49 269.968 44.28 271.368 44.14C272.068 44.14 272.908 44 273.188 43.86L273.748 43.65L273.958 42.95C274.098 42.53 274.378 41.62 274.588 41.06C275.568 38.54 276.268 36.44 276.268 35.74C276.268 34.97 276.408 34.69 277.108 34.06C277.598 33.57 277.738 33.22 277.808 32.38C277.878 31.89 277.948 31.54 278.228 31.05C278.648 30.28 278.648 30.21 278.158 29.51C277.878 29.16 277.878 28.88 278.088 28.6C278.228 28.46 278.228 28.39 278.018 27.97C277.738 27.48 277.808 26.92 278.298 26.43C278.788 25.87 279.558 25.38 280.048 25.38C280.398 25.38 280.398 25.31 280.678 24.61C280.888 24.26 281.168 23.56 281.448 23.14C281.658 22.72 281.938 22.02 282.078 21.32C282.288 20.41 282.288 20.27 282.148 20.06C282.078 19.92 281.938 19.57 281.938 19.36C281.868 19.01 281.868 18.87 282.148 18.45C282.358 18.24 282.568 18.03 282.708 17.96C282.918 17.89 283.058 17.54 283.198 16.91C283.548 16.28 283.758 15.51 283.898 14.81C283.968 14.39 284.178 13.69 284.388 13.27C284.598 12.85 284.808 12.29 284.808 12.01C284.878 11.52 284.878 11.45 284.598 11.38C284.458 11.31 284.108 11.17 283.898 11.17C283.618 11.1 283.198 10.96 282.918 10.82C282.638 10.68 282.218 10.54 282.078 10.54C281.308 10.54 280.748 10.12 280.608 9.56C280.608 9.42 280.398 9.21 280.118 9.14C279.558 8.86 279.348 8.58 279.348 8.16C279.348 7.32 279.908 6.69 280.678 6.48C281.868 6.2 282.778 5.78 283.408 5.22C284.318 4.45 284.668 4.31 286.348 4.24C287.328 4.17 287.958 4.1 288.658 3.89C290.058 3.47 291.388 3.4 292.718 3.54C293.488 3.61 294.048 3.61 294.538 3.54C296.148 3.33 299.228 3.12 299.648 3.26C299.858 3.33 304.128 3.33 304.618 3.26C305.808 3.19 306.438 3.12 306.858 3.12C307.278 3.12 307.488 3.19 307.908 3.33C308.258 3.47 308.818 3.54 309.098 3.54C309.728 3.54 310.008 3.75 310.568 4.31L311.058 4.73Z" fill="black"/>
</svg>
