<svg width="443" height="41" viewBox="0 0 443 41" fill="none" xmlns="http://www.w3.org/2000/svg">
<path d="M11.9 38.92C7.18 36.72 3.84 33.24 1.88 28.48C0.88 25.96 0.38 23.32 0.38 20.56C0.38 12.92 3.3 7.22 9.14 3.46C12.38 1.46 15.78 0.459998 19.34 0.459998C21.38 0.459998 23.46 0.759997 25.58 1.36C27.7 1.92 29.2 2.58 30.08 3.34C31.68 4.78 31.92 6.16 30.8 7.48C30.12 8.16 29.32 8.44 28.4 8.32C27.52 8.2 26.84 7.74 26.36 6.94C25.52 5.38 24.5 4.12 23.3 3.16C22.1 2.2 20.82 1.72 19.46 1.72C17.22 1.72 15.1 2.58 13.1 4.3C11.1 5.98 9.5 8.26 8.3 11.14C7.1 14.02 6.5 17.12 6.5 20.44C6.5 22.68 6.72 24.82 7.16 26.86C7.84 30.14 9.12 32.9 11 35.14C12.88 37.54 15.7 38.74 19.46 38.74C24.06 38.74 28.16 37.24 31.76 34.24L32.72 35.38C28.88 38.74 24.16 40.42 18.56 40.42C16.24 40.42 14.02 39.92 11.9 38.92ZM63.088 5.68C64.808 7.4 66.168 9.56 67.168 12.16C68.208 14.72 68.728 17.38 68.728 20.14C68.728 22.86 68.448 25.06 67.888 26.74C66.928 29.58 65.868 31.74 64.708 33.22C62.348 36.3 59.448 38.42 56.008 39.58C54.488 40.1 52.968 40.36 51.448 40.36H50.068C45.708 40.36 41.748 38.66 38.188 35.26C36.548 33.66 35.208 31.56 34.168 28.96C33.128 26.32 32.608 23.46 32.608 20.38C32.608 17.3 33.108 14.5 34.108 11.98C35.068 9.46 36.388 7.36 38.068 5.68C41.708 2.2 45.888 0.459998 50.608 0.459998C55.368 0.459998 59.528 2.2 63.088 5.68ZM50.668 39.1C52.748 39.1 54.708 38.24 56.548 36.52C58.428 34.76 59.888 32.44 60.928 29.56C61.968 26.64 62.488 23.6 62.488 20.44C62.488 15.24 61.368 10.8 59.128 7.12C56.848 3.52 54.028 1.72 50.668 1.72C47.348 1.72 44.548 3.54 42.268 7.18C39.988 10.78 38.848 15.2 38.848 20.44C38.848 23.28 39.368 26.14 40.408 29.02C41.448 31.9 42.888 34.3 44.728 36.22C46.608 38.14 48.588 39.1 50.668 39.1ZM114.861 1.9C112.061 1.9 110.621 3.1 110.541 5.5V35.32C110.621 37.72 112.061 38.92 114.861 38.92V40H101.181V38.92C103.981 38.92 105.421 37.74 105.501 35.38V6.52L92.1809 40L75.2609 6.52V35.44C75.3009 37.76 76.7209 38.92 79.5209 38.92V40H69.6809V38.92C72.5209 38.92 73.9409 37.74 73.9409 35.38V5.5C73.9409 3.1 72.5209 1.9 69.6809 1.9V0.879999H78.6809L94.0409 31.42L106.041 0.879999H114.861V1.9ZM161.502 1.9C158.702 1.9 157.262 3.1 157.182 5.5V35.32C157.262 37.72 158.702 38.92 161.502 38.92V40H147.822V38.92C150.622 38.92 152.062 37.74 152.142 35.38V6.52L138.822 40L121.902 6.52V35.44C121.942 37.76 123.362 38.92 126.162 38.92V40H116.322V38.92C119.162 38.92 120.582 37.74 120.582 35.38V5.5C120.582 3.1 119.162 1.9 116.322 1.9V0.879999H125.322L140.682 31.42L152.682 0.879999H161.502V1.9ZM201.182 0.879999V1.96C198.302 1.96 196.862 3.16 196.862 5.56V25.72C196.862 27.92 196.222 30.26 194.942 32.74C194.102 34.22 193.182 35.48 192.182 36.52C191.182 37.56 189.762 38.48 187.922 39.28C186.122 40.04 184.102 40.42 181.862 40.42C179.622 40.42 177.662 40.04 175.982 39.28C173.582 38.36 171.642 36.84 170.162 34.72C169.082 33.24 168.362 32.04 168.002 31.12C167.202 28.96 166.802 27.16 166.802 25.72V5.5C166.802 3.14 165.382 1.96 162.542 1.96V0.879999H176.222V1.96C174.742 1.96 173.662 2.22 172.982 2.74C172.302 3.26 171.962 4.14 171.962 5.38V26.5C171.962 27.06 172.082 27.94 172.322 29.14C173.042 32.62 174.422 35.18 176.462 36.82C178.262 38.22 180.622 38.92 183.542 38.92C185.342 38.92 186.942 38.54 188.342 37.78C189.782 36.98 190.902 36.06 191.702 35.02C192.502 33.98 193.202 32.8 193.802 31.48C194.442 30.12 194.842 29.08 195.002 28.36C195.242 27.08 195.362 26.18 195.362 25.66V5.56C195.362 3.16 193.942 1.96 191.102 1.96V0.879999H201.182ZM240.68 1.9C237.84 1.9 236.42 3.1 236.42 5.5V37L238.34 40H231.98L207.86 6.46V35.32C207.86 37.72 209.28 38.92 212.12 38.92V40H202.22V38.92C205.06 38.92 206.48 37.74 206.48 35.38V5.26C206.4 3.02 204.98 1.9 202.22 1.9V0.879999H211.22L235.1 34.72V5.56H235.04C235.04 3.12 233.62 1.9 230.78 1.9V0.879999H240.68V1.9ZM251.365 35.5C251.445 37.78 252.865 38.92 255.625 38.92V40H242.005V38.92C244.805 38.92 246.225 37.76 246.265 35.44V5.44C246.185 3.08 244.765 1.9 242.005 1.9V0.879999H255.625V1.9C252.865 1.9 251.445 3.04 251.365 5.32V35.5ZM268.072 38.92C263.352 36.72 260.012 33.24 258.052 28.48C257.052 25.96 256.552 23.32 256.552 20.56C256.552 12.92 259.472 7.22 265.312 3.46C268.552 1.46 271.952 0.459998 275.512 0.459998C277.552 0.459998 279.632 0.759997 281.752 1.36C283.872 1.92 285.372 2.58 286.252 3.34C287.852 4.78 288.092 6.16 286.972 7.48C286.292 8.16 285.492 8.44 284.572 8.32C283.692 8.2 283.012 7.74 282.532 6.94C281.692 5.38 280.672 4.12 279.472 3.16C278.272 2.2 276.992 1.72 275.632 1.72C273.392 1.72 271.272 2.58 269.272 4.3C267.272 5.98 265.672 8.26 264.472 11.14C263.272 14.02 262.672 17.12 262.672 20.44C262.672 22.68 262.892 24.82 263.332 26.86C264.012 30.14 265.292 32.9 267.172 35.14C269.052 37.54 271.872 38.74 275.632 38.74C280.232 38.74 284.332 37.24 287.932 34.24L288.892 35.38C285.052 38.74 280.332 40.42 274.732 40.42C272.412 40.42 270.192 39.92 268.072 38.92ZM321.611 36.82C322.051 37.58 322.491 38.12 322.931 38.44C323.411 38.76 324.091 38.92 324.971 38.92V40H313.331V38.92C314.131 38.92 314.711 38.64 315.071 38.08C315.431 37.52 315.391 36.58 314.951 35.26L313.691 32.2H295.271C295.071 32.88 294.871 33.48 294.671 34C293.951 36.12 293.771 37.48 294.131 38.08C294.451 38.64 295.191 38.92 296.351 38.92V40H289.031V38.92C290.471 38.92 291.551 38.28 292.271 37C298.311 20.68 302.191 10.06 303.911 5.14C304.351 4.06 304.411 3.26 304.091 2.74C303.811 2.18 302.991 1.9 301.631 1.9V0.879999H305.951L321.611 36.82ZM313.151 31.06L303.671 9.28L295.631 31.06H313.151ZM351.061 0.999998V9.1H349.981C349.981 6.7 349.301 4.78 347.941 3.34C347.141 2.54 346.201 2.14 345.121 2.14H338.101V35.68C338.221 37.84 339.641 38.92 342.361 38.92V40H328.741V38.92C331.581 38.92 333.001 37.74 333.001 35.38V2.14H325.981C324.901 2.14 323.961 2.56 323.161 3.4C321.761 4.8 321.061 6.7 321.061 9.1H319.981V0.999998H351.061ZM361.404 35.5C361.484 37.78 362.904 38.92 365.664 38.92V40H352.044V38.92C354.844 38.92 356.264 37.76 356.304 35.44V5.44C356.224 3.08 354.804 1.9 352.044 1.9V0.879999H365.664V1.9C362.904 1.9 361.484 3.04 361.404 5.32V35.5ZM397.131 5.68C398.851 7.4 400.211 9.56 401.211 12.16C402.251 14.72 402.771 17.38 402.771 20.14C402.771 22.86 402.491 25.06 401.931 26.74C400.971 29.58 399.911 31.74 398.751 33.22C396.391 36.3 393.491 38.42 390.051 39.58C388.531 40.1 387.011 40.36 385.491 40.36H384.111C379.751 40.36 375.791 38.66 372.231 35.26C370.591 33.66 369.251 31.56 368.211 28.96C367.171 26.32 366.651 23.46 366.651 20.38C366.651 17.3 367.151 14.5 368.151 11.98C369.111 9.46 370.431 7.36 372.111 5.68C375.751 2.2 379.931 0.459998 384.651 0.459998C389.411 0.459998 393.571 2.2 397.131 5.68ZM384.711 39.1C386.791 39.1 388.751 38.24 390.591 36.52C392.471 34.76 393.931 32.44 394.971 29.56C396.011 26.64 396.531 23.6 396.531 20.44C396.531 15.24 395.411 10.8 393.171 7.12C390.891 3.52 388.071 1.72 384.711 1.72C381.391 1.72 378.591 3.54 376.311 7.18C374.031 10.78 372.891 15.2 372.891 20.44C372.891 23.28 373.411 26.14 374.451 29.02C375.491 31.9 376.931 34.3 378.771 36.22C380.651 38.14 382.631 39.1 384.711 39.1ZM442.184 1.9C439.344 1.9 437.924 3.1 437.924 5.5V37L439.844 40H433.484L409.364 6.46V35.32C409.364 37.72 410.784 38.92 413.624 38.92V40H403.724V38.92C406.564 38.92 407.984 37.74 407.984 35.38V5.26C407.904 3.02 406.484 1.9 403.724 1.9V0.879999H412.724L436.604 34.72V5.56H436.544C436.544 3.12 435.124 1.9 432.284 1.9V0.879999H442.184V1.9Z" fill="black"/>
</svg>
