<svg width="312" height="40" viewBox="0 0 312 40" fill="none" xmlns="http://www.w3.org/2000/svg">
<path d="M19.9219 27.3398C20.1172 27.3398 20.293 27.291 20.4492 27.1934V24.5273C21.7773 23.6289 23.6328 22.8965 26.0156 22.3301C28.418 21.7637 30.752 21.4805 33.0176 21.4805C34.0527 22.5352 34.9121 24.1172 35.5957 26.2266C36.2988 28.3164 36.6699 30.2109 36.709 31.9102C36.3184 32.6914 35.6543 33.5312 34.7168 34.4297C33.7988 35.3281 32.6855 36.1582 31.377 36.9199C28.1348 38.834 24.4141 39.791 20.2148 39.791C14.1992 39.791 9.46289 38.043 6.00586 34.5469C2.43164 31.0117 0.644531 26.1191 0.644531 19.8691C0.644531 13.5996 2.59766 8.67773 6.50391 5.10352C8.22266 3.50195 10.2246 2.30078 12.5098 1.5C14.7949 0.679688 17.1973 0.269531 19.7168 0.269531C24.6387 0.269531 28.6719 1.46094 31.8164 3.84375C34.9609 6.22656 36.5332 9.16602 36.5332 12.6621C36.5332 15.2988 35.7227 17.252 34.1016 18.5215C32.4805 19.7715 30.2832 20.3965 27.5098 20.3965C25.9863 20.3965 24.4531 20.0254 22.9102 19.2832C21.3672 18.5215 20.4492 17.8086 20.1562 17.1445C20.1562 15.543 20.1855 14.2832 20.2441 13.3652C20.2051 13.3457 20.1367 13.3359 20.0391 13.3359H19.834C19.541 13.3359 19.3066 13.4238 19.1309 13.5996C18.9746 13.7559 18.8281 14.0977 18.6914 14.625C18.5742 15.1523 18.5156 16.5879 18.5156 18.9316C18.5156 24.5371 18.9844 27.3398 19.9219 27.3398ZM65.3156 0.679688C67.6594 0.679688 69.6906 1.31445 71.4094 2.58398C73.1281 3.85352 73.9875 5.66016 73.9875 8.00391V24.293C73.9875 29.2539 72.4738 33.082 69.4465 35.7773C66.4191 38.4531 62.2297 39.791 56.8781 39.791C51.5461 39.791 47.3957 38.4727 44.427 35.8359C41.3996 33.1992 39.8859 29.3516 39.8859 24.293V3.4043C42.1906 1.56836 44.8566 0.650391 47.884 0.650391C50.423 0.650391 52.4348 1.32422 53.9191 2.67188C55.4035 4 56.1457 6.02148 56.1457 8.73633V25.8164C56.3605 25.9727 56.6047 26.0508 56.8781 26.0508C57.1711 26.0508 57.3762 25.9824 57.4934 25.8457C57.6301 25.6895 57.6984 25.4062 57.6984 24.9961V8.70703C57.6984 7.47656 57.6398 6.5 57.5227 5.77734C57.4055 5.05469 57.1711 4.33203 56.8195 3.60938C59.1633 1.65625 61.9953 0.679688 65.3156 0.679688ZM94.3324 18.1699C94.4105 18.2285 94.6352 18.2578 95.0062 18.2578C95.3773 18.2578 95.6605 18.1113 95.8559 17.8184C96.0512 17.5254 96.1488 17.0469 96.1488 16.3828V15.3281C96.1488 14.625 96.0609 14.127 95.8852 13.834C95.7289 13.5215 95.4555 13.3652 95.0648 13.3652C94.6937 13.3652 94.4398 13.4043 94.3031 13.4824C94.3227 13.5801 94.3324 13.7461 94.3324 13.9805V18.1699ZM109.45 24.8496L114.518 30.0352C114.166 33.082 113.2 35.4258 111.618 37.0664C110.055 38.707 107.887 39.5273 105.114 39.5273C103.024 39.5273 101.207 39.0293 99.6645 38.0332C97.6918 36.7832 96.2172 34.791 95.2406 32.0566L94.1859 29.1855C93.3656 29.166 92.3305 29.0586 91.0805 28.8633C90.9242 29.0195 90.8461 29.2344 90.8461 29.5078C90.8461 30.0352 91.6371 30.3477 93.2191 30.4453L94.8891 34.6641V37.1543C92.643 38.7363 89.7621 39.5273 86.2465 39.5273C83.727 39.5273 81.7152 39.0098 80.2113 37.9746C78.7074 36.9395 77.9555 35.4355 77.9555 33.4629V5.63086C77.9555 4.77148 78.7465 3.94141 80.3285 3.14062C81.9105 2.32031 83.9809 1.66602 86.5395 1.17773C89.098 0.669922 91.6566 0.416016 94.2152 0.416016C100.075 0.416016 104.655 1.61719 107.955 4.01953C111.432 6.53906 113.17 10.084 113.17 14.6543C113.17 17.2715 112.428 19.5176 110.944 21.3926C109.479 23.248 107.623 24.5371 105.377 25.2598C105.377 25.8848 105.748 26.1973 106.491 26.1973C107.252 26.1973 108.239 25.748 109.45 24.8496ZM134.541 6.50977V36.7734C133.642 37.5547 132.441 38.209 130.937 38.7363C129.433 39.2637 127.607 39.5273 125.459 39.5273C123.31 39.5273 121.484 39.0488 119.98 38.0918C118.281 37.0566 117.431 35.5918 117.431 33.6973V3.43359C118.33 2.65234 119.531 1.99805 121.035 1.4707C122.539 0.943359 124.355 0.679688 126.484 0.679688C128.613 0.679688 130.459 1.14844 132.021 2.08594C133.701 3.16016 134.541 4.63477 134.541 6.50977ZM158.343 18.7852C158.343 16.832 158.255 15.4941 158.079 14.7715C157.903 14.0293 157.581 13.6582 157.112 13.6582C156.819 13.6582 156.555 13.7559 156.321 13.9512C156.36 14.3027 156.419 14.7715 156.497 15.3574C156.575 15.9434 156.614 17.1934 156.614 19.1074V21.0117C156.614 22.3398 156.585 23.3066 156.526 23.9121C156.468 24.5176 156.419 25.0352 156.38 25.4648C156.36 25.6992 156.341 25.9336 156.321 26.168C156.555 26.3633 156.819 26.4609 157.112 26.4609C157.581 26.4609 157.903 26.0996 158.079 25.377C158.255 24.6348 158.343 23.2871 158.343 21.334V18.7852ZM157.171 39.9375C153.694 39.9375 150.501 39.2246 147.591 37.7988C144.7 36.3535 142.366 34.1562 140.589 31.207C138.811 28.2383 137.923 24.5371 137.923 20.1035C137.923 13.6777 139.856 8.6582 143.723 5.04492C147.161 1.86133 151.585 0.269531 156.995 0.269531C162.874 0.269531 167.522 2.0957 170.94 5.74805C174.378 9.38086 176.096 14.166 176.096 20.1035C176.096 26.7051 174.261 31.7441 170.589 35.2207C167.249 38.3652 162.776 39.9375 157.171 39.9375ZM195.562 28.3359C196.207 28.2188 196.529 27.8965 196.529 27.3691C196.529 26.8223 196.354 26.2168 196.002 25.5527C195.67 24.8691 195.172 24.2246 194.508 23.6191C192.77 22.0566 190.416 21.2754 187.447 21.2754C185.982 21.2754 184.615 21.5195 183.346 22.0078C181.998 21.3242 180.924 20.2402 180.123 18.7559C179.322 17.2715 178.922 15.6699 178.922 13.9512C178.922 9.45898 180.797 5.99219 184.547 3.55078C187.77 1.46094 191.744 0.416016 196.471 0.416016C199.986 0.416016 202.945 0.796875 205.348 1.55859C207.75 2.30078 209.713 3.25781 211.236 4.42969C211.686 5.71875 211.91 7.05664 211.91 8.44336C211.91 9.83008 211.725 11.0898 211.354 12.2227C210.982 13.3555 210.445 14.2637 209.742 14.9473C209.078 14.459 207.877 13.9609 206.139 13.4531C204.4 12.9453 202.818 12.6914 201.393 12.6914C199.967 12.6914 199.01 12.7793 198.521 12.9551C198.053 13.1309 197.818 13.4043 197.818 13.7754C197.818 13.9512 197.848 14.1172 197.906 14.2734C198.59 14.0977 199.469 14.0098 200.543 14.0098C204.352 14.0098 207.457 14.9082 209.859 16.7051C212.691 18.8535 214.107 22.0762 214.107 26.373C214.107 30.1621 212.574 33.3066 209.508 35.8066C206.188 38.4824 201.725 39.8203 196.119 39.8203C193.033 39.8203 190.357 39.5859 188.092 39.1172C185.826 38.668 183.619 37.8672 181.471 36.7148C180.006 34.5859 179.273 32.4277 179.273 30.2402C179.273 28.0332 180.025 26.207 181.529 24.7617C183.033 23.3164 184.879 22.5938 187.066 22.5938C189.273 22.5938 191.07 23.043 192.457 23.9414C193.863 24.8398 194.898 26.3047 195.562 28.3359ZM234.511 6.50977V36.7734C233.613 37.5547 232.411 38.209 230.907 38.7363C229.404 39.2637 227.577 39.5273 225.429 39.5273C223.28 39.5273 221.454 39.0488 219.95 38.0918C218.251 37.0566 217.402 35.5918 217.402 33.6973V3.43359C218.3 2.65234 219.501 1.99805 221.005 1.4707C222.509 0.943359 224.325 0.679688 226.454 0.679688C228.583 0.679688 230.429 1.14844 231.991 2.08594C233.671 3.16016 234.511 4.63477 234.511 6.50977ZM263.498 16.1777V36.7734C262.6 37.5547 261.399 38.209 259.895 38.7363C258.391 39.2637 256.565 39.5273 254.416 39.5273C252.268 39.5273 250.442 39.0488 248.938 38.0918C247.239 37.0566 246.389 35.5918 246.389 33.6973V14.8301H239.563C238.157 12.8184 237.454 10.6211 237.454 8.23828C237.454 6.61719 237.707 5.21094 238.215 4.01953C238.743 2.80859 239.387 1.87109 240.149 1.20703H270.442C271.008 2.08594 271.477 3.15039 271.848 4.40039C272.219 5.65039 272.405 6.89062 272.405 8.12109C272.405 10.4258 271.897 12.125 270.881 13.2188C269.866 14.293 268.498 14.8301 266.78 14.8301H258.196C258.137 14.9668 258.108 15.1133 258.108 15.2695C258.108 15.6211 258.313 15.8555 258.723 15.9727C259.153 16.1094 260.071 16.1777 261.477 16.1777H263.498ZM287.681 30.0938C288.228 30.0938 288.502 29.791 288.502 29.1855C284.185 26.3145 280.884 22.7891 278.599 18.6094C276.334 14.4297 275.064 9.82031 274.791 4.78125C275.67 3.47266 276.978 2.4668 278.716 1.76367C280.474 1.06055 282.281 0.708984 284.136 0.708984C286.578 0.708984 288.677 1.1875 290.435 2.14453C291.529 5.09375 292.427 7.90625 293.13 10.582C292.173 14.8008 291.695 16.9102 291.695 16.9102C291.617 17.2031 291.578 17.4766 291.578 17.7305C291.578 18.3945 291.929 18.7266 292.632 18.7266C292.867 17.9844 293.414 15.7383 294.273 11.9883C294.488 11.0312 294.771 9.70312 295.123 8.00391C295.494 6.28516 295.962 4.26367 296.529 1.93945C298.326 1.08008 300.377 0.650391 302.681 0.650391C305.474 0.650391 307.701 1.33398 309.361 2.70117C311.021 4.04883 311.851 6.00195 311.851 8.56055C311.851 12.3105 310.796 15.9629 308.687 19.5176C307.027 22.3301 304.83 24.957 302.095 27.3984V37.0664C300.474 38.0625 299.019 38.7168 297.73 39.0293C296.441 39.3613 295.084 39.5273 293.658 39.5273C290.962 39.5273 288.843 39.0195 287.3 38.0039C285.757 36.9883 284.986 35.4746 284.986 33.4629V28.3066C285.337 28.6582 285.787 29.0488 286.334 29.4785C286.88 29.8887 287.33 30.0938 287.681 30.0938Z" fill="black"/>
</svg>
