<svg width="159" height="42" viewBox="0 0 159 42" fill="none" xmlns="http://www.w3.org/2000/svg">
<path d="M11.9385 27.5723V35.7021C11.9385 36.6462 12.3454 37.2646 13.1592 37.5576C13.5498 37.7041 13.8184 37.9076 13.9648 38.168C14.1276 38.4121 14.209 38.876 14.209 39.5596C14.209 40.2106 14.1195 40.6175 13.9404 40.7803C13.7614 40.9268 13.4033 41 12.8662 41H1.80664C1.2207 41 0.927734 40.4873 0.927734 39.4619C0.927734 38.6481 0.968424 38.1517 1.0498 37.9727C1.13118 37.7773 1.40788 37.6064 1.87988 37.46C2.30306 37.3298 2.56348 37.1914 2.66113 37.0449C2.77507 36.8822 2.83203 36.6136 2.83203 36.2393V6.74707C2.83203 6.0472 2.40072 5.48568 1.53809 5.0625C1.08236 4.81836 0.846354 4.44401 0.830078 3.93945L0.805664 2.79199C0.805664 2.30371 0.86263 1.98633 0.976562 1.83984C1.10677 1.67708 1.38346 1.5957 1.80664 1.5957H14.3066C17.9036 1.5957 20.7682 2.7513 22.9004 5.0625C25.0488 7.35742 26.123 10.5394 26.123 14.6084C26.123 16.9033 25.7894 18.946 25.1221 20.7363C24.471 22.5267 23.641 23.8451 22.6318 24.6914C21.639 25.5378 20.4834 26.2295 19.165 26.7666C17.863 27.3037 16.4714 27.5723 14.9902 27.5723H11.9385ZM11.9385 4.30566V24.7646H13.6475C14.2334 24.7646 14.7542 24.4473 15.21 23.8125C15.682 23.1615 15.918 22.0872 15.918 20.5898V8.40723C15.918 5.67285 15.0065 4.30566 13.1836 4.30566H11.9385ZM37.9746 32.5771H31.8711L31.6025 34.8232C31.6025 34.8721 31.5863 34.9453 31.5537 35.043C31.4235 35.515 31.3584 35.9382 31.3584 36.3125C31.3584 36.8984 31.7409 37.3949 32.5059 37.8018C32.9128 38.0133 33.165 38.2331 33.2627 38.4609C33.3604 38.6888 33.4092 39.0632 33.4092 39.584C33.4092 40.2513 33.3685 40.6582 33.2871 40.8047C33.222 40.9349 33.0511 41 32.7744 41H26.3291C25.971 41 25.792 40.6257 25.792 39.877C25.792 38.9818 26.0768 38.2575 26.6465 37.7041C27.1836 37.1995 27.4928 36.6624 27.5742 36.0928L32.0908 7.35742C32.1722 6.91797 32.2129 6.53548 32.2129 6.20996C32.2129 5.7054 31.863 5.25781 31.1631 4.86719C30.8376 4.67188 30.6748 4.24056 30.6748 3.57324C30.6748 2.67806 30.7236 2.12467 30.8213 1.91309C30.9189 1.7015 31.1794 1.5957 31.6025 1.5957H40.9287C41.4984 1.5957 41.8971 1.86426 42.125 2.40137C42.3529 2.93848 42.5807 4.11035 42.8086 5.91699C42.9062 6.61686 43.0039 7.30859 43.1016 7.99219L47.1055 34.8232C47.3008 36.1253 47.7809 37.1182 48.5459 37.8018C48.7575 37.9808 48.8958 38.1273 48.9609 38.2412C49.026 38.3389 49.0586 38.6562 49.0586 39.1934C49.0586 40.0234 49.0016 40.5361 48.8877 40.7314C48.7738 40.9105 48.5296 41 48.1553 41H37.291C36.9655 41 36.8027 40.6908 36.8027 40.0723C36.8027 39.291 36.8434 38.8027 36.9248 38.6074C37.0062 38.4121 37.2422 38.1842 37.6328 37.9238C38.2025 37.5658 38.4873 37.11 38.4873 36.5566C38.4873 35.987 38.3164 34.6605 37.9746 32.5771ZM35.0449 10.7998L32.335 29.7695H37.7061L35.0449 10.7998ZM63.2051 2.64551C63.3027 2.56413 63.5794 2.19792 64.0352 1.54688C64.3281 1.1237 64.7188 0.912109 65.207 0.912109C65.321 0.912109 65.7767 0.969076 66.5742 1.08301C66.737 1.24577 66.859 1.58757 66.9404 2.1084L68.2588 10.3848C68.3239 10.8242 68.3564 11.0846 68.3564 11.166C68.3564 11.4753 68.2669 11.6787 68.0879 11.7764C67.9251 11.874 67.4775 11.9229 66.7451 11.9229C65.915 11.9229 65.3779 11.8171 65.1338 11.6055C64.8896 11.3939 64.4258 10.515 63.7422 8.96875C62.2936 5.69727 60.9997 4.06152 59.8604 4.06152C59.0465 4.06152 58.6396 4.63118 58.6396 5.77051C58.6396 7.18652 59.8685 9.96973 62.3262 14.1201C65.1419 18.9053 66.973 22.3721 67.8193 24.5205C68.682 26.6527 69.1133 29.0452 69.1133 31.6982C69.1133 34.8395 68.3727 37.2484 66.8916 38.9248C65.4105 40.6012 63.7422 41.4395 61.8867 41.4395C60.7148 41.4395 59.5837 41.1058 58.4932 40.4385C58.07 40.1781 57.7363 40.0479 57.4922 40.0479C57.2806 40.0479 57.1097 40.2025 56.9795 40.5117C56.7191 41.1302 56.0843 41.4395 55.0752 41.4395C54.6846 41.4395 54.416 41.3743 54.2695 41.2441C54.1393 41.1302 54.0417 40.8128 53.9766 40.292L52.7559 32.1621C52.5931 31.1204 52.5117 30.5671 52.5117 30.502C52.5117 30.0299 52.943 29.7939 53.8057 29.7939C54.9775 29.7939 55.6693 29.9486 55.8809 30.2578C56.0924 30.5671 56.3936 31.2751 56.7842 32.3818C58.2165 36.3369 59.6569 38.3145 61.1055 38.3145C61.6426 38.3145 62.0739 38.1191 62.3994 37.7285C62.7412 37.3379 62.9121 36.8496 62.9121 36.2637C62.9121 35.2383 62.5378 34.0257 61.7891 32.626C61.0566 31.21 60.1533 29.6393 59.0791 27.9141C56.5075 23.7799 54.6846 20.484 53.6104 18.0264C52.5524 15.5524 52.0234 13.0296 52.0234 10.458C52.0234 7.56087 52.6582 5.24967 53.9277 3.52441C55.1973 1.79915 56.7516 0.936523 58.5908 0.936523C59.8604 0.936523 61.3984 1.50618 63.2051 2.64551ZM83.4551 2.64551C83.5527 2.56413 83.8294 2.19792 84.2852 1.54688C84.5781 1.1237 84.9688 0.912109 85.457 0.912109C85.571 0.912109 86.0267 0.969076 86.8242 1.08301C86.987 1.24577 87.109 1.58757 87.1904 2.1084L88.5088 10.3848C88.5739 10.8242 88.6064 11.0846 88.6064 11.166C88.6064 11.4753 88.5169 11.6787 88.3379 11.7764C88.1751 11.874 87.7275 11.9229 86.9951 11.9229C86.165 11.9229 85.6279 11.8171 85.3838 11.6055C85.1396 11.3939 84.6758 10.515 83.9922 8.96875C82.5436 5.69727 81.2497 4.06152 80.1104 4.06152C79.2965 4.06152 78.8896 4.63118 78.8896 5.77051C78.8896 7.18652 80.1185 9.96973 82.5762 14.1201C85.3919 18.9053 87.223 22.3721 88.0693 24.5205C88.932 26.6527 89.3633 29.0452 89.3633 31.6982C89.3633 34.8395 88.6227 37.2484 87.1416 38.9248C85.6605 40.6012 83.9922 41.4395 82.1367 41.4395C80.9648 41.4395 79.8337 41.1058 78.7432 40.4385C78.32 40.1781 77.9863 40.0479 77.7422 40.0479C77.5306 40.0479 77.3597 40.2025 77.2295 40.5117C76.9691 41.1302 76.3343 41.4395 75.3252 41.4395C74.9346 41.4395 74.666 41.3743 74.5195 41.2441C74.3893 41.1302 74.2917 40.8128 74.2266 40.292L73.0059 32.1621C72.8431 31.1204 72.7617 30.5671 72.7617 30.502C72.7617 30.0299 73.193 29.7939 74.0557 29.7939C75.2275 29.7939 75.9193 29.9486 76.1309 30.2578C76.3424 30.5671 76.6436 31.2751 77.0342 32.3818C78.4665 36.3369 79.9069 38.3145 81.3555 38.3145C81.8926 38.3145 82.3239 38.1191 82.6494 37.7285C82.9912 37.3379 83.1621 36.8496 83.1621 36.2637C83.1621 35.2383 82.7878 34.0257 82.0391 32.626C81.3066 31.21 80.4033 29.6393 79.3291 27.9141C76.7575 23.7799 74.9346 20.484 73.8604 18.0264C72.8024 15.5524 72.2734 13.0296 72.2734 10.458C72.2734 7.56087 72.9082 5.24967 74.1777 3.52441C75.4473 1.79915 77.0016 0.936523 78.8408 0.936523C80.1104 0.936523 81.6484 1.50618 83.4551 2.64551ZM92.2793 3.64648V2.35254C92.2793 1.84798 92.5479 1.5957 93.085 1.5957H104.779C105.219 1.5957 105.504 1.65267 105.634 1.7666C105.764 1.88053 105.829 2.22233 105.829 2.79199C105.829 3.65462 105.78 4.19173 105.683 4.40332C105.601 4.61491 105.406 4.74512 105.097 4.79395C104.088 4.97298 103.583 5.61589 103.583 6.72266V36.0684C103.583 36.6868 103.949 37.1751 104.682 37.5332C105.154 37.7611 105.438 37.9645 105.536 38.1436C105.634 38.3226 105.683 38.6318 105.683 39.0713V40.0234C105.683 40.5443 105.634 40.8372 105.536 40.9023C105.438 40.9674 105.186 41 104.779 41H92.8652C92.4095 41 92.1816 40.821 92.1816 40.4629C92.1816 39.291 92.2223 38.5749 92.3037 38.3145C92.3851 38.054 92.6699 37.8506 93.1582 37.7041C94.0371 37.46 94.4766 36.9961 94.4766 36.3125V7.33301C94.4766 6.64941 94.3952 6.13672 94.2324 5.79492C94.0697 5.43685 93.7116 5.14388 93.1582 4.91602C92.7513 4.73698 92.499 4.58236 92.4014 4.45215C92.32 4.30566 92.2793 4.03711 92.2793 3.64648ZM121.221 0.936523C123.613 0.936523 125.68 1.74219 127.422 3.35352C129.18 4.94857 130.612 7.22721 131.719 10.1895C132.826 13.1517 133.379 16.9521 133.379 21.5908C133.379 27.1572 132.297 31.861 130.132 35.7021C127.983 39.527 124.948 41.4395 121.025 41.4395C117.298 41.4395 114.36 39.5677 112.212 35.8242C110.063 32.0807 108.989 27.2467 108.989 21.3223C108.989 15.2513 110.088 10.3359 112.285 6.57617C114.499 2.81641 117.477 0.936523 121.221 0.936523ZM123.149 6.72266C123.149 4.68815 122.49 3.6709 121.172 3.6709C120.618 3.6709 120.146 3.92318 119.756 4.42773C119.365 4.93229 119.17 5.55078 119.17 6.2832V35.751C119.17 36.7438 119.365 37.5007 119.756 38.0215C120.146 38.526 120.61 38.7783 121.147 38.7783C121.75 38.7783 122.23 38.4935 122.588 37.9238C122.962 37.3542 123.149 36.7194 123.149 36.0195V6.72266ZM143.033 18.6611V35.8975C143.033 36.6136 143.44 37.1507 144.254 37.5088C144.938 37.818 145.279 38.2575 145.279 38.8271C145.279 40.0153 145.247 40.6745 145.182 40.8047C145.133 40.9349 144.897 41 144.474 41H137.979C137.654 41 137.451 40.8779 137.369 40.6338C137.288 40.3734 137.247 39.7467 137.247 38.7539C137.247 38.2982 137.467 37.9808 137.906 37.8018C138.753 37.4274 139.176 37.0042 139.176 36.5322V7.6748C139.176 6.97493 139.111 6.4541 138.98 6.1123C138.85 5.75423 138.557 5.46126 138.102 5.2334C137.695 5.03809 137.418 4.8265 137.271 4.59863C137.141 4.37077 137.076 3.93945 137.076 3.30469C137.076 2.16536 137.377 1.5957 137.979 1.5957H144.767L152.97 20.6143V6.60059C152.97 5.81934 152.571 5.26595 151.773 4.94043C151.301 4.72884 150.992 4.49284 150.846 4.23242C150.715 3.95573 150.65 3.42676 150.65 2.64551C150.65 2.15723 150.699 1.86426 150.797 1.7666C150.895 1.65267 151.082 1.5957 151.358 1.5957H158.097C158.471 1.64453 158.658 2.18164 158.658 3.20703C158.658 3.80924 158.618 4.19173 158.536 4.35449C158.471 4.51725 158.308 4.6556 158.048 4.76953C157.478 4.9974 157.12 5.21712 156.974 5.42871C156.827 5.6403 156.754 5.93327 156.754 6.30762V41H152.604L143.033 18.6611Z" fill="black"/>
</svg>
