<svg width="153" height="143" viewBox="0 0 153 143" fill="none" xmlns="http://www.w3.org/2000/svg">
<g clip-path="url(#clip0_579_3)">
<path d="M153 22.4035V3.33683H116.662V22.4035H129.093V35.7502H124.312V50.0502H114.75L107.578 59.5835L95.6246 51.4802L102.318 41.4702L109.012 43.8535L109.968 23.8335V21.4502C109.968 14.1413 106.781 8.1035 100.406 3.33683C90.8434 -2.85984 77.4559 0.000161898 71.7184 10.0102L59.7652 28.1235L43.9871 17.6368L2.86836 44.8068L24.384 96.2868H38.7277V70.5468H30.1215L34.4246 58.1535L38.2496 47.6668H43.9871V109.633H39.2059L33.4684 101.053H11.9527L-0.478516 139.187H20.559L30.1215 123.933V139.187H59.7652L79.8465 111.54H88.4527L68.8496 139.187H132.44L121.443 121.55H111.881L117.618 111.54L129.571 92.4735L116.662 84.3702H89.8871V78.6502H120.009L143.915 58.6302V34.7968H140.09V22.8802L153 22.4035ZM94.6684 20.4968C97.2184 20.4968 98.6527 21.9268 98.9715 24.7868C99.2902 27.6468 97.8559 29.0768 94.6684 29.0768C93.6499 28.8731 92.7257 28.3442 92.0356 27.5701C91.3454 26.7961 90.9269 25.8191 90.8434 24.7868C91.1621 22.2446 92.4371 20.8146 94.6684 20.4968Z" fill="#8CF4A1"/>
</g>
<defs>
<clipPath id="clip0_579_3">
<rect width="153" height="143" fill="white"/>
</clipPath>
</defs>
</svg>
